<svg width="50" height="16" viewBox="0 0 50 16" fill="none" xmlns="http://www.w3.org/2000/svg">
<g clip-path="url(#clip0_485_3619)">
<path d="M27.1126 7.61655C30.2709 6.15482 30.738 1.38477 26.2456 1.38477H21.0431L19.1205 5.23158H20.0252L17.7256 14.4254H23.7574C28.1579 14.4638 30.1369 9.17635 27.1126 7.61655ZM23.7574 11.0787H22.2494L22.8149 9.00152H24.2474C25.9439 9.34765 24.8884 11.1556 23.7574 11.0787ZM24.6622 6.65482H23.3805L23.7574 4.84685H25.1899C26.5741 5.19309 25.3785 6.73181 24.6622 6.65482Z" fill="#005FAF" stroke="#005FAF" stroke-width="0.724249"/>
<path d="M39.462 6.29756L41.437 2.73985L38.7645 1.31738L38.4159 1.75639C36.9742 0.97765 29.4249 2.05288 28.9521 9.65199C29.2347 16.0267 36.235 14.88 36.9216 14.4755L38.8469 10.4143C36.9613 11.6817 33.1003 12.2901 32.9369 8.483C33.2756 5.34355 36.9081 4.17114 39.462 6.29756ZM49.3176 1.38467H43.2459L41.316 5.11633H42.3074L37.7317 14.4253H42.1607L43.07 12.18H45.7888L45.8566 14.4253H49.9337L49.3176 1.38467ZM44.3018 9.15695L45.7887 5.53537L45.8565 9.15695H44.3018Z" fill="#005FAF" stroke="#005FAF" stroke-width="0.724249"/>
<path d="M11.4007 13.8018L11.6365 13.732L11.3778 13.3672L11.4007 13.8018ZM7.5284 13.7397L7.48279 14.0657C7.60018 14.054 7.74471 14.1573 7.80232 13.926C7.798 13.7457 7.66352 13.7358 7.5284 13.7397ZM9.40756 13.732C9.38799 13.6432 9.31535 13.5778 9.13364 13.6389L9.1945 13.9725C9.34378 13.9388 9.42053 13.8487 9.40756 13.732ZM5.16248 13.4588L5.08984 13.7553C5.20659 13.7603 5.34333 13.8569 5.42084 13.6812C5.42603 13.5711 5.43046 13.4615 5.16248 13.4588ZM9.24779 14.221L9.30108 14.5627C9.42572 14.5659 9.53944 14.4894 9.50647 14.3298C9.47469 14.1763 9.34832 14.2005 9.24779 14.221Z" fill="#005FAF"/>
<path d="M14.1948 1.5592C10.1663 -0.534901 5.35526 -0.47666 1.51696 1.46787C-0.462299 5.02327 -0.52532 9.99782 1.51696 14.4038C5.7456 16.5873 10.4225 16.4435 14.2245 14.4951C16.0113 10.7544 16.3065 6.25315 14.1948 1.5592ZM7.39116 12.1756L7.15237 12.1784C7.09324 11.5051 6.93553 10.9393 6.59719 10.5062C5.04567 8.52087 1.87411 10.0156 2.68905 6.64152C3.11279 4.91661 7.94613 3.89928 7.39116 12.1756ZM2.69478 8.84317C3.03356 9.54679 5.15604 9.66206 5.89283 10.2007C7.06157 11.055 6.8938 12.1787 6.8938 12.1787H6.61816C6.07551 10.4815 4.55253 11.8253 3.33266 11.3682C2.56679 11.0903 2.01074 9.88543 2.69478 8.84317ZM6.56184 14.3761L6.67599 13.4523L6.88137 13.4678L6.79003 14.4847C6.69793 14.9327 6.04341 14.8728 5.96082 14.4459L6.0673 13.3902L6.31073 13.4291L6.20425 14.314C6.21777 14.6068 6.50563 14.5893 6.56184 14.3761ZM5.46887 14.6283L5.23473 14.5707C5.26219 14.3732 5.49168 13.9715 5.0381 13.9715L4.91185 14.4965L4.6535 14.4471L4.92795 13.1867C5.5988 13.2612 5.6575 13.4517 5.6708 13.6562C5.64431 13.8149 5.60291 13.9256 5.46898 13.9527C5.62572 14.0979 5.47082 14.4021 5.46887 14.6283ZM3.98178 13.2166C3.91725 13.3039 3.78807 13.6091 3.76937 13.8524C3.74948 14.1101 3.99216 14.0559 4.05259 14.0258C4.10134 14.0016 4.13755 13.7946 4.13755 13.7946L3.96762 13.7368L4.02426 13.5635L4.40671 13.6935L4.22262 14.3439L4.06685 14.3004L4.08101 14.1993C3.89033 14.2879 3.54129 14.2214 3.50032 13.997C3.45935 13.8166 3.58344 13.2699 3.78353 13.0144C3.978 12.766 4.45179 13.0088 4.46335 13.1589C4.47481 13.3085 4.41698 13.4768 4.41698 13.4768L4.23862 13.4425C4.23862 13.4425 4.24954 13.3884 4.2651 13.3033C4.28153 13.213 4.05096 13.1227 3.98178 13.2166ZM7.45958 14.275L7.41397 14.8341L7.22382 14.8263L7.29225 13.4988C7.76712 13.5089 8.03931 13.5759 8.03023 13.9181C8.00191 14.3856 7.63092 14.2804 7.45958 14.275ZM7.93294 12.1786H7.61481C7.5866 11.029 7.80322 8.92634 7.21129 7.3789C6.76279 6.20583 5.62777 5.67814 5.37623 4.73052C4.978 3.23062 5.65577 1.60774 7.93294 1.48276C9.90711 1.68958 10.5136 3.24474 10.1769 4.69269C9.59796 6.14042 9.01888 5.93239 8.29798 7.37449C7.70918 8.92039 7.93337 10.9457 7.93294 12.1786ZM11.4611 14.3061L11.2405 14.3838L11.172 13.0486L11.4306 12.9788L12.0697 14.081L11.8947 14.1975L11.6816 13.8871L11.4382 13.9802L11.4611 14.3061ZM8.88722 12.1786H8.63276C8.84247 9.22626 12.4783 9.86767 12.8106 8.84317C13.3852 9.85884 13.1787 10.7152 12.5786 11.1542C11.0875 12.2456 9.65774 10.3466 8.88722 12.1786ZM10.2364 13.6697L10.3505 14.283C10.4215 14.4243 10.4698 14.3981 10.5787 14.3839C10.7051 14.2906 10.6787 14.1997 10.6548 14.0811L10.8754 14.0501C10.933 14.4944 10.7259 14.5398 10.5712 14.5702C10.2392 14.5945 10.1741 14.5285 10.0843 14.089C10.032 13.7127 9.9416 13.3154 10.2516 13.2428C10.7605 13.1635 10.7305 13.3973 10.7765 13.5611L10.5559 13.6C10.5207 13.4592 10.47 13.4034 10.3581 13.4138C10.2562 13.4616 10.2143 13.5389 10.2364 13.6697ZM9.77232 14.3061C9.78291 14.4995 9.71859 14.6279 9.59731 14.671L9.07996 14.7797L8.87457 13.4988C8.98072 13.4812 9.50121 13.2866 9.62768 13.6387C9.69006 13.8537 9.62541 13.9308 9.55158 14.0268C9.69157 14.0726 9.73881 14.1838 9.77232 14.3061ZM8.44381 7.87846C9.59634 4.56717 12.2336 5.15232 12.8185 6.64163C13.6198 9.63007 11.0395 8.81052 9.38674 10.036C8.76204 10.5904 8.43332 11.2264 8.42846 12.1905H8.14524C8.12827 10.2485 8.09746 8.8734 8.44381 7.87846Z" fill="#005FAF"/>
</g>
<defs>
<clipPath id="clip0_485_3619">
<rect width="50" height="16" fill="white"/>
</clipPath>
</defs>
</svg>
