<svg width="50" height="14" viewBox="0 0 50 14" fill="none" xmlns="http://www.w3.org/2000/svg">
<path fill-rule="evenodd" clip-rule="evenodd" d="M17.2656 0C17.8512 0.385624 18.4468 0.970386 18.4468 1.5355V11.4931C18.4468 12.0509 17.9 12.84 17.402 13.1545C19.1585 13.1545 20.915 13.1545 22.6716 13.1545C26.081 13.0191 28.149 11.8349 28.3962 9.35237C28.5696 7.61107 27.6132 6.25673 25.2635 5.49314C26.4359 5.06406 27.0661 4.12964 27.1237 2.84073C27.2225 0.623725 24.5404 0 22.8533 0H17.2656V0ZM20.5364 5.3318V1.18001H22.1536C23.9883 1.18001 24.8525 2.046 24.8521 3.35123C24.8519 4.65645 23.6114 5.3318 22.0632 5.3318H20.5364ZM22.2603 11.8871H20.5364V6.51164H22.4899C25.3999 6.51164 26.2802 8.195 26.1241 9.57082C25.9682 10.9468 24.7389 11.8871 22.2603 11.8871ZM33.0363 0H30.1728C30.8095 0.681668 31.0873 1.03965 31.0873 2.09612V11.1708C31.0873 12.2161 30.6056 12.8574 29.9149 13.3113H33.725C33.1592 12.9792 32.5503 12.327 32.5503 11.1466V3.12994C34.475 5.60353 36.3998 8.07695 38.3247 10.5504C39.416 11.9239 40.6813 13.0881 42.1567 14V2.04833C42.1567 0.851502 42.6583 0.394948 43.3295 0H39.6146C40.288 0.480531 40.6449 1.02333 40.6449 2.00071V10.0044L33.0363 0V0ZM45.4378 13.3113C46.2086 12.8193 46.6004 12.2422 46.6004 11.4929V1.98789C46.6004 0.86399 46.2633 0.609905 45.6021 0H49.9997C49.2407 0.410932 48.7081 1.25028 48.7081 1.98789V11.4668C48.7081 12.1941 49.1555 12.8603 49.7624 13.3113H45.4378Z" fill="#007697"/>
<path fill-rule="evenodd" clip-rule="evenodd" d="M0 0H4.24509C4.02336 0.365976 3.85547 1.18884 4.28472 3.0372C4.6662 4.6801 5.76962 6.39392 6.92064 7.7486L5.47434 8.89098L0 2.27411V0V0ZM6.19922 0H13.6723V1.74213C13.0944 1.41712 12.0401 1.10309 10.4924 1.69867C7.99498 2.65974 7.78104 5.47399 7.78104 5.47399C6.39948 3.86856 5.49078 1.23646 6.19922 0ZM13.6723 4.05288V9.23798C11.9742 9.85787 9.59238 8.24578 8.99402 6.33198C8.12652 3.55786 10.1712 2.55667 11.6339 2.83123C12.7271 3.03653 13.3618 3.66326 13.6723 4.05288ZM13.6723 10.0891V13.153H9.09216L10.0104 12.4279C9.41133 12.4981 8.23418 12.2271 7.66109 11.5342L6.04881 9.58547L7.5228 8.42144C8.42855 9.38184 9.29121 10.0718 9.77879 10.2788C10.8232 10.722 11.9995 10.936 13.6723 10.0891ZM6.53448 13.153H1.53111L4.64855 10.6911C4.90368 10.9994 5.14997 11.2975 5.38399 11.5804C5.84301 12.1353 6.22864 12.6834 6.53448 13.153ZM0.0770229 13.153H0V5.07238C1.19065 6.51147 2.71155 8.34984 4.07408 9.99674L0.0770229 13.153Z" fill="#EC6722"/>
</svg>
