<svg width="50" height="18" viewBox="0 0 50 18" fill="none" xmlns="http://www.w3.org/2000/svg">
<g clip-path="url(#clip0_485_1857)">
<path d="M16.0225 -3.8147e-06H2.88547C1.29254 -3.8147e-06 0 1.25907 0 2.81423V15.1854C0 16.7263 1.26697 17.9775 2.84223 17.9996L16.0131 18C17.6061 18 18.9016 16.7406 18.9016 15.1854L18.908 2.81423C18.908 1.25907 17.6151 -3.8147e-06 16.0225 -3.8147e-06ZM4.44682 16.5578L3.72987 16.5661C2.86178 16.5661 2.161 15.8863 2.161 15.051L2.15574 14.9304V3.50617L2.161 2.8904C2.19596 2.08224 2.84073 1.42928 3.68663 1.42928H5.14271C6.46495 1.42928 7.53417 2.52172 7.53417 3.80833C7.53417 4.44734 7.271 5.02413 6.84542 5.44573L3.12984 9.03021L6.61383 12.4059C7.06122 12.8471 7.33191 13.4261 7.33191 14.0586C7.33191 15.4386 6.04275 16.5578 4.44682 16.5578ZM15.1578 16.5475L8.66167 16.5457C8.66167 16.5457 9.41283 15.0002 9.41283 14.0451C9.41283 12.8804 9.00341 11.838 8.36241 11.15L6.14163 8.99517L8.40639 6.76882C9.08424 6.16306 9.53163 5.09136 9.53163 3.87234C9.53163 2.90649 9.25117 2.05078 8.79701 1.42928H10.3719C11.693 1.42928 12.7634 2.52172 12.7634 3.80833C12.7634 4.44734 12.5013 5.02413 12.0769 5.44573L8.43008 8.99374L16.0018 16.3383C15.7605 16.482 15.459 16.5475 15.1578 16.5475ZM16.7425 14.2535L11.3155 8.99267L13.8999 6.49526C14.4266 5.86769 14.7619 4.92544 14.7619 3.87234C14.7619 2.90077 14.4762 2.02252 14.0202 1.40139L15.1755 1.43572C16.0421 1.43572 16.747 2.11335 16.747 2.95119L16.7425 14.2535Z" fill="#00529C"/>
<path d="M30.553 8.1549C30.6586 8.05442 30.7834 7.92497 30.9274 7.76656C31.071 7.60815 31.2071 7.42113 31.3357 7.20514C31.4643 6.98916 31.5741 6.7485 31.6647 6.4821C31.7557 6.21605 31.8012 5.93177 31.8012 5.6296C31.8012 5.03994 31.6951 4.48961 31.4835 3.97861C31.2714 3.46797 30.9462 3.0217 30.5075 2.64015C30.0687 2.25932 29.5206 1.96037 28.8623 1.74439C28.2044 1.52876 27.4363 1.42077 26.5592 1.42077H26.5351H24.0132H23.3568H20.7725V4.17207V13.6968V16.5293H27.1265C28.0491 16.5293 28.8544 16.4106 29.5432 16.1731C30.2312 15.9357 30.8026 15.6085 31.2564 15.1912C31.7102 14.7739 32.0467 14.2883 32.2662 13.7344C32.4854 13.1805 32.5952 12.5869 32.5952 11.9536C32.5952 11.1047 32.391 10.3494 31.9827 9.68717C31.5741 9.02563 31.0974 8.51464 30.553 8.1549ZM27.7435 4.18923C27.9574 4.26683 28.136 4.36767 28.2754 4.49461C28.6367 4.82431 28.8176 5.21837 28.8176 5.6768C28.8176 6.09268 28.742 6.43633 28.5916 6.70845C28.4409 6.98093 28.2901 7.18869 28.1397 7.33173H23.7226V4.01079H26.4682C26.9829 4.01079 27.4066 4.07123 27.7435 4.18923ZM27.2852 9.94643C28.0848 9.94643 28.6773 10.1435 29.0631 10.5368C29.4259 10.9241 29.6086 11.3811 29.6086 11.91C29.6086 12.4549 29.4014 12.9201 28.9871 13.3071C28.5724 13.694 27.8912 13.8878 26.9419 13.8878H26.5874H23.7226V9.94643H27.2852Z" fill="#00529C"/>
<path d="M43.3672 10.0219C43.8436 9.71256 44.241 9.35283 44.5586 8.94267C44.8763 8.53252 45.1106 8.07945 45.2621 7.58312C45.4132 7.08642 45.4891 6.57936 45.4891 6.06121C45.4891 5.38501 45.3715 4.7628 45.1372 4.19424C44.9023 3.62603 44.5508 3.13684 44.0819 2.72669C43.6127 2.31653 43.0266 1.99649 42.3232 1.7662C41.6198 1.53627 40.8066 1.42077 39.884 1.42077H39.8009H33.689H33.6318V16.5293H36.6391V10.9176H38.3159L42.4631 16.5293H45.988L41.6995 10.7235C42.3345 10.5654 42.8905 10.3316 43.3672 10.0219ZM39.9066 4.01079C40.0957 4.01079 40.2742 4.02259 40.4442 4.04298C40.9803 4.11986 41.4183 4.30187 41.7559 4.59116C42.2153 4.98558 42.445 5.46905 42.445 6.0419C42.445 6.32905 42.3958 6.60833 42.298 6.88045C42.1999 7.15294 42.0457 7.39288 41.8348 7.60028C41.6236 7.8084 41.3525 7.97647 41.0213 8.10555C40.6897 8.23464 40.2904 8.29901 39.8235 8.29901H36.6391V4.01079H39.9066Z" fill="#00529C"/>
<path d="M47.0498 1.42077V1.42506C47.0193 1.42435 46.9896 1.42077 46.9592 1.42077H46.9336V1.42184V6.95984V10.928V16.5293H49.9999V1.42077H47.0498Z" fill="#00529C"/>
</g>
<defs>
<clipPath id="clip0_485_1857">
<rect width="50" height="18" fill="white"/>
</clipPath>
</defs>
</svg>
