<svg width="16" height="16" viewBox="0 0 16 16" fill="none" xmlns="http://www.w3.org/2000/svg">
<path d="M10 7.33348V3.88682C10 3.53348 9.86 3.19348 9.60667 2.94682L8.46667 1.80682C8.20667 1.54682 7.78667 1.54682 7.52667 1.80682L6.39333 2.94015C6.14 3.19348 6 3.53348 6 3.88682V4.66682H3.33333C2.6 4.66682 2 5.26682 2 6.00015V12.6668C2 13.4001 2.6 14.0001 3.33333 14.0001H12.6667C13.4 14.0001 14 13.4001 14 12.6668V8.66682C14 7.93348 13.4 7.33348 12.6667 7.33348H10ZM4.66667 12.6668H3.33333V11.3335H4.66667V12.6668ZM4.66667 10.0001H3.33333V8.66682H4.66667V10.0001ZM4.66667 7.33348H3.33333V6.00015H4.66667V7.33348ZM8.66667 12.6668H7.33333V11.3335H8.66667V12.6668ZM8.66667 10.0001H7.33333V8.66682H8.66667V10.0001ZM8.66667 7.33348H7.33333V6.00015H8.66667V7.33348ZM8.66667 4.66682H7.33333V3.33348H8.66667V4.66682ZM12.6667 12.6668H11.3333V11.3335H12.6667V12.6668ZM12.6667 10.0001H11.3333V8.66682H12.6667V10.0001Z" fill="#D0AD6B"/>
</svg>
