<svg width="16" height="16" viewBox="0 0 16 16" fill="none" xmlns="http://www.w3.org/2000/svg">
<path d="M14 8C14 9.5913 13.3679 11.1174 12.2426 12.2426C11.1174 13.3679 9.5913 14 8 14C6.4087 14 4.88258 13.3679 3.75736 12.2426C2.63214 11.1174 2 9.5913 2 8C2 6.4087 2.63214 4.88258 3.75736 3.75736C4.88258 2.63214 6.4087 2 8 2C9.5913 2 11.1174 2.63214 12.2426 3.75736C13.3679 4.88258 14 6.4087 14 8ZM8 4.625C8 4.52554 7.96049 4.43016 7.89016 4.35984C7.81984 4.28951 7.72446 4.25 7.625 4.25C7.52554 4.25 7.43016 4.28951 7.35984 4.35984C7.28951 4.43016 7.25 4.52554 7.25 4.625V8.75C7.25002 8.8161 7.26751 8.88102 7.3007 8.93818C7.33389 8.99534 7.3816 9.04272 7.439 9.0755L10.064 10.5755C10.1501 10.6221 10.2511 10.6331 10.3452 10.6062C10.4394 10.5793 10.5193 10.5167 10.5679 10.4316C10.6165 10.3466 10.6299 10.246 10.6052 10.1512C10.5806 10.0564 10.5198 9.97508 10.436 9.9245L8 8.5325V4.625Z" fill="#D0AD6B"/>
</svg>
