<svg width="16" height="16" viewBox="0 0 16 16" fill="none" xmlns="http://www.w3.org/2000/svg">
<g clip-path="url(#clip0_412_16088)">
<path d="M4.22929 13.7034L4.49086 13.8327C5.58086 14.4791 6.80154 14.7807 8.02229 14.7807C11.8589 14.7807 14.9979 11.6781 14.9979 7.88597C14.9979 6.07612 14.2567 4.30933 12.9488 3.01654C11.6409 1.72375 9.89692 0.991211 8.02229 0.991211C4.18573 0.991211 1.04667 4.09385 1.09029 7.92909C1.09029 9.22182 1.48267 10.4715 2.13661 11.5488L2.31098 11.8074L1.61348 14.3498L4.22929 13.7034Z" fill="#00E676"/>
<path d="M13.6896 2.32698C12.2073 0.81878 10.1582 0 8.0655 0C3.61863 0 0.043625 3.57665 0.0871875 7.92896C0.0871875 9.30792 0.479562 10.6438 1.13356 11.8504L0 15.9442L4.22894 14.8668C5.40606 15.5133 6.71394 15.8149 8.02194 15.8149C12.4253 15.8149 16.0002 12.2382 16.0002 7.88596C16.0002 5.77439 15.1719 3.79212 13.6896 2.32698H13.6896ZM8.0655 14.4791C6.88838 14.4791 5.71125 14.1775 4.7085 13.5742L4.44694 13.4449L1.91831 14.0912L2.57225 11.635L2.39788 11.3764C0.479563 8.31691 1.39512 4.26613 4.53412 2.37004C7.67312 0.474008 11.7277 1.37897 13.646 4.48161C15.5642 7.58425 14.6487 11.5918 11.5098 13.4879C10.5069 14.1343 9.28625 14.479 8.0655 14.479V14.4791ZM11.9021 9.69588L11.4225 9.4804C11.4225 9.4804 10.725 9.17875 10.289 8.96327C10.2454 8.96327 10.2018 8.92016 10.1582 8.92016C10.0274 8.92016 9.94019 8.96327 9.853 9.00639C9.853 9.00639 9.80944 9.04945 9.19906 9.73893C9.15544 9.82511 9.06825 9.86823 8.98106 9.86823H8.93744C8.89387 9.86823 8.80669 9.82511 8.76306 9.78205L8.54506 9.69588C8.0655 9.4804 7.62956 9.22181 7.28075 8.8771C7.19356 8.79092 7.06275 8.70474 6.97556 8.61856C6.67037 8.31691 6.36519 7.97214 6.14725 7.58431L6.10362 7.49813C6.06006 7.45501 6.06006 7.41195 6.01644 7.32578C6.01644 7.2396 6.01644 7.15342 6.06006 7.1103C6.06006 7.1103 6.23444 6.89483 6.36519 6.76559C6.45244 6.67935 6.496 6.55012 6.58319 6.46394C6.67037 6.33464 6.714 6.16229 6.67037 6.03299C6.62681 5.81751 6.10363 4.65402 5.97288 4.39549C5.88562 4.26619 5.7985 4.22314 5.66769 4.18002H5.18813C5.10087 4.18002 5.01375 4.22314 4.9265 4.22314L4.88287 4.26619C4.79569 4.30931 4.7085 4.39549 4.62131 4.43855C4.53413 4.52479 4.4905 4.6109 4.40331 4.69714C4.09812 5.08497 3.92375 5.55898 3.92375 6.03299C3.92375 6.3777 4.01094 6.72247 4.14175 7.02412L4.18538 7.15342C4.57775 7.97214 5.10087 8.70474 5.7985 9.3511L5.97288 9.52346C6.10363 9.65276 6.23444 9.73893 6.32163 9.86817C7.23719 10.6439 8.2835 11.2041 9.46062 11.5057C9.59144 11.5488 9.76581 11.5488 9.89662 11.5919H10.3326C10.5506 11.5919 10.8121 11.5057 10.9866 11.4196C11.1173 11.3334 11.2045 11.3334 11.2917 11.2472L11.3789 11.161C11.4661 11.0748 11.5533 11.0317 11.6405 10.9455C11.7277 10.8594 11.8149 10.7732 11.8585 10.6869C11.9457 10.5146 11.9893 10.2991 12.0329 10.0837V9.78205C12.0329 9.78205 11.9893 9.73893 11.9021 9.69588Z" fill="white"/>
</g>
<defs>
<clipPath id="clip0_412_16088">
<rect width="16" height="16" fill="white"/>
</clipPath>
</defs>
</svg>
