<svg width="85" height="36" viewBox="0 0 85 36" fill="none" xmlns="http://www.w3.org/2000/svg">
<path d="M25.2352 31.7461H25.2301C25.0872 31.7647 21.7785 32.1884 19.1683 31.8067C16.9732 31.4851 16.1467 30.4963 15.9694 29.3195C15.9459 29.1599 15.9333 28.999 15.9316 28.838C15.9583 27.6672 16.7929 26.0566 18.9043 23.8487C18.9043 23.7723 20.8102 21.9786 22.9704 19.9736C25.9563 21.6921 28.3311 24.2772 28.9051 26.6927C28.9051 26.6927 29.0359 27.3242 29.0401 27.6525C29.0664 29.9593 27.8778 31.2228 25.2352 31.7461Z" fill="url(#paint0_linear_635_9251)"/>
<path d="M30.9995 10.1109C31.0102 10.9128 30.8386 11.7081 30.4951 12.4476C30.1517 13.1871 29.6438 13.8549 29.003 14.4097C28.9877 14.4234 18.9038 23.7717 18.9047 23.848C16.7933 26.0559 15.9589 27.6656 15.9322 28.8374C15.9278 28.9986 15.9406 29.1597 15.97 29.3187C16.1471 30.4956 16.9738 31.4844 19.1687 31.806C21.7789 32.1878 25.0876 31.764 25.2305 31.7454C23.2294 32.0826 6.36658 33.871 7.01841 19.7989C7.44406 10.5771 17.6383 3.73193 24.505 4.00807C28.9399 4.18633 30.9607 6.86789 30.9995 10.1109Z" fill="url(#paint1_linear_635_9251)"/>
<path d="M53.5521 17.6762C54.4641 17.1962 55.0401 16.3322 55.0401 15.2122C55.0401 13.4682 53.6001 12.3002 50.8001 12.3002H45.3281V23.5002H51.1201C54.0641 23.5002 55.6001 22.3802 55.6001 20.4442C55.6001 19.0362 54.8001 18.0762 53.5521 17.6762ZM50.4801 14.2522C51.7441 14.2522 52.4321 14.6842 52.4321 15.5642C52.4321 16.4442 51.7441 16.8922 50.4801 16.8922H47.9041V14.2522H50.4801ZM50.9281 21.5482H47.9041V18.7802H50.9281C52.2721 18.7802 52.9921 19.2282 52.9921 20.1722C52.9921 21.1322 52.2721 21.5482 50.9281 21.5482ZM61.1785 14.7642C59.8025 14.7642 58.4105 15.1322 57.4665 15.8042L58.3625 17.5482C58.9865 17.0522 59.9305 16.7482 60.8425 16.7482C62.1865 16.7482 62.8265 17.3722 62.8265 18.4442H60.8425C58.2185 18.4442 57.1465 19.5002 57.1465 21.0202C57.1465 22.5082 58.3465 23.6282 60.3625 23.6282C61.6265 23.6282 62.5225 23.2122 62.9865 22.4282V23.5002H65.3225V18.5882C65.3225 15.9802 63.8025 14.7642 61.1785 14.7642ZM60.9865 21.9482C60.1065 21.9482 59.5785 21.5322 59.5785 20.9082C59.5785 20.3322 59.9465 19.9002 61.1145 19.9002H62.8265V20.7802C62.5385 21.5642 61.8185 21.9482 60.9865 21.9482ZM69.2615 13.6922C70.1895 13.6922 70.8135 13.0842 70.8135 12.2522C70.8135 11.4842 70.1895 10.9082 69.2615 10.9082C68.3335 10.9082 67.7095 11.5162 67.7095 12.3002C67.7095 13.0842 68.3335 13.6922 69.2615 13.6922ZM67.2615 26.7322C69.3415 26.7322 70.5095 25.4682 70.5095 23.4842V14.8922H68.0135V23.5002C68.0135 24.3482 67.6135 24.7482 66.9895 24.7482C66.5735 24.7482 66.2055 24.6362 65.9335 24.4442L65.2615 26.2522C65.7415 26.5882 66.4935 26.7322 67.2615 26.7322ZM77.2237 23.6282C79.9597 23.6282 81.9437 21.7882 81.9437 19.1962C81.9437 16.6042 79.9597 14.7642 77.2237 14.7642C74.4877 14.7642 72.4877 16.6042 72.4877 19.1962C72.4877 21.7882 74.4877 23.6282 77.2237 23.6282ZM77.2237 21.5802C75.9757 21.5802 75.0157 20.6842 75.0157 19.1962C75.0157 17.7082 75.9757 16.8122 77.2237 16.8122C78.4717 16.8122 79.4157 17.7082 79.4157 19.1962C79.4157 20.6842 78.4717 21.5802 77.2237 21.5802Z" fill="url(#paint2_linear_635_9251)"/>
<defs>
<linearGradient id="paint0_linear_635_9251" x1="18.0222" y1="23.7479" x2="23.8582" y2="28.4449" gradientUnits="userSpaceOnUse">
<stop stop-color="#925F20"/>
<stop offset="1" stop-color="#B87828"/>
</linearGradient>
<linearGradient id="paint1_linear_635_9251" x1="7808.67" y1="10476" x2="7808.67" y2="8370.69" gradientUnits="userSpaceOnUse">
<stop offset="0.08" stop-color="#BD8430"/>
<stop offset="0.35" stop-color="#D78732"/>
<stop offset="0.55" stop-color="#D79D4A"/>
<stop offset="0.82" stop-color="#C07D2A"/>
<stop offset="1" stop-color="#BD8430"/>
</linearGradient>
<linearGradient id="paint2_linear_635_9251" x1="13371.9" y1="6367.5" x2="13371.9" y2="5089.27" gradientUnits="userSpaceOnUse">
<stop offset="0.08" stop-color="#BD8430"/>
<stop offset="0.35" stop-color="#D78732"/>
<stop offset="0.55" stop-color="#D79D4A"/>
<stop offset="0.82" stop-color="#C07D2A"/>
<stop offset="1" stop-color="#BD8430"/>
</linearGradient>
</defs>
</svg>
