<svg width="126" height="80" viewBox="0 0 126 80" fill="none" xmlns="http://www.w3.org/2000/svg">
<path d="M19 55C19 41.1929 30.1929 30 44 30C57.8071 30 69 41.1929 69 55C69 68.8071 57.8071 80 44 80C30.1929 80 19 68.8071 19 55Z" fill="#108DE8"/>
<circle cx="44" cy="55" r="24.5" fill="white" stroke="#F2F2F2"/>
<path fill-rule="evenodd" clip-rule="evenodd" d="M43.3174 42.5302C40.4145 42.7909 38.0619 44.2502 36.6332 46.5027C35.7047 47.9662 35.2682 49.7002 35.4028 51.4797C35.7322 55.8331 39.6728 59.519 44.7167 59.1395C49.2422 58.7989 52.976 54.9339 52.5936 50.1802C52.4534 48.4397 51.8163 47.0053 50.795 45.7101C50.3325 45.1236 50.2413 45.1141 49.7584 44.634C49.1596 44.0384 47.8932 43.3548 47.085 43.0523C46.0013 42.6466 44.6214 42.4131 43.3174 42.5302Z" fill="#108DE8"/>
<path fill-rule="evenodd" clip-rule="evenodd" d="M39.0072 48.4038C38.8972 48.7055 38.9627 52.06 38.9627 52.6823C38.9627 53.3554 38.8228 53.5656 39.932 53.9258C42.8689 54.8794 45.777 51.6461 48.6974 53.2459C48.8328 53.3199 48.9976 53.4719 49.0363 53.2264L49.0374 48.9111C49.0376 48.4469 49.0813 48.3015 48.757 48.0872C46.1437 46.3587 43.3143 49.3151 40.6626 48.9835C39.6813 48.8608 39.275 48.3855 39.0072 48.4038Z" fill="white"/>
<path fill-rule="evenodd" clip-rule="evenodd" d="M33.5967 67.4775C34.3169 67.5233 35.1559 67.0257 35.4515 66.7408C36.4783 65.7508 36.5031 64.3185 35.4694 63.2819C35.0845 62.8959 34.1834 62.4693 33.6085 62.5291L31.5327 62.5304L31.5322 67.4713L33.5967 67.4775ZM32.6983 66.4069C32.8512 66.4306 33.4792 66.4218 33.6517 66.4076C35.0698 66.2921 35.5706 64.5649 34.3785 63.8414C34.1806 63.7213 33.9604 63.6255 33.6715 63.5969C33.5133 63.5812 32.8376 63.5714 32.6976 63.5939L32.6983 66.4069Z" fill="#108DE8"/>
<path fill-rule="evenodd" clip-rule="evenodd" d="M51.7798 67.4875L52.9605 67.4871L52.9617 66.4222L55.3046 66.4225L55.3115 67.4872L56.4917 67.4874C56.4925 66.8956 56.492 66.3086 56.492 65.7216C56.492 65.1929 56.5419 64.531 56.3955 64.0514C56.1478 63.2396 55.2812 62.5196 54.1408 62.5156C52.9881 62.5116 52.1514 63.2295 51.8843 64.0295C51.7262 64.5029 51.779 65.1817 51.779 65.7029C51.779 66.2968 51.7721 66.894 51.7798 67.4875ZM52.9616 65.3508L55.3105 65.3517C55.3162 64.8949 55.3712 64.451 55.1411 64.101C54.9765 63.8507 54.6292 63.5887 54.1414 63.5869C53.6438 63.585 53.312 63.8366 53.1344 64.0959C52.9018 64.4361 52.9544 64.9044 52.9616 65.3508Z" fill="#108DE8"/>
<path fill-rule="evenodd" clip-rule="evenodd" d="M38.2733 67.4855L39.45 67.4864C39.4507 67.2642 39.4184 66.5829 39.4615 66.4213L41.7954 66.4216L41.8037 67.4857L42.9819 67.4867C42.9758 66.8967 42.9814 66.3076 42.9814 65.7208C42.9814 65.2174 43.0338 64.4962 42.8857 64.0499C42.2114 62.0174 39.0722 62.003 38.3755 64.0296C38.2177 64.4885 38.2716 65.1909 38.2716 65.702C38.2716 66.2919 38.2564 66.8977 38.2733 67.4855ZM39.4507 65.3499L41.8026 65.3509C41.8075 64.9008 41.8627 64.4485 41.632 64.0993C41.2099 63.46 40.1363 63.368 39.6256 64.0962C39.3922 64.429 39.4431 64.9116 39.4507 65.3499Z" fill="#108DE8"/>
<path fill-rule="evenodd" clip-rule="evenodd" d="M45.0532 64.4594L45.0371 65.1975C45.0371 65.8163 45.0026 66.9707 45.0396 67.4727L46.1935 67.4733C46.2203 67.1214 46.1518 64.6101 46.2249 64.5301C46.2252 64.0421 46.7963 63.5883 47.374 63.5864C47.7289 63.5852 47.9876 63.7139 48.176 63.8665C48.323 63.9858 48.5479 64.2574 48.5436 64.5326C48.5976 64.5597 48.555 67.1792 48.5719 67.4725L49.7271 67.4733L49.7179 64.4744C49.7467 64.2395 49.5879 63.8763 49.4861 63.6919C48.6309 62.1435 46.1764 62.123 45.297 63.6652C45.1939 63.846 45.0288 64.2191 45.0532 64.4594Z" fill="#108DE8"/>
<path fill-rule="evenodd" clip-rule="evenodd" d="M33.5972 67.4775L31.5327 67.4713L31.5332 62.5305L33.609 62.5291C33.5713 62.482 32.7052 62.5102 32.5838 62.5102C32.2819 62.5102 31.8051 62.4848 31.5244 62.5142C31.4979 62.5929 31.4871 67.3602 31.5226 67.4886C31.7137 67.5106 33.0458 67.4936 33.4669 67.4945L33.5826 67.4837C33.5863 67.4828 33.5924 67.4796 33.5972 67.4775Z" fill="#108DE8"/>
<path fill-rule="evenodd" clip-rule="evenodd" d="M48.5432 64.5328C48.5556 64.937 48.5187 67.3454 48.561 67.4898L49.7373 67.4944C49.768 67.3786 49.7491 65.5006 49.7491 65.2163C49.7491 65.0804 49.79 64.5465 49.7176 64.4746L49.7268 67.4734L48.5716 67.4727C48.5546 67.1794 48.5972 64.5599 48.5432 64.5328Z" fill="#108DE8"/>
<path fill-rule="evenodd" clip-rule="evenodd" d="M46.2237 64.5297C46.1506 64.6097 46.2191 67.1209 46.1923 67.4728L45.0384 67.4723C45.0014 66.9703 45.0359 65.8159 45.0359 65.1971L45.052 64.459C44.9863 64.4844 45.0157 65.7998 45.0157 65.964C45.0157 66.203 44.9838 67.3528 45.0297 67.4898L46.2053 67.4936L46.2237 64.5297Z" fill="#108DE8"/>
<g clip-path="url(#clip0_230_1495)">
<path d="M57 55C57 41.1929 68.1929 30 82 30C95.8071 30 107 41.1929 107 55C107 68.8071 95.8071 80 82 80C68.1929 80 57 68.8071 57 55Z" fill="#EE4E2C"/>
<circle cx="82" cy="55" r="24.5" fill="white" stroke="#F2F2F2"/>
<path fill-rule="evenodd" clip-rule="evenodd" d="M74.8384 40.6388H89.5906C90.5719 40.6388 91.375 41.4208 91.375 42.3764V52.4291C91.375 53.3846 90.5719 54.1667 89.5906 54.1667H74.4094C73.4281 54.1667 72.625 53.3846 72.625 52.4291V40.011C72.625 39.559 73.0078 39.2462 73.4677 39.1904L87.0714 37.5C87.5357 37.5 87.9141 37.8685 87.9141 38.3206V39.7261H73.9869C73.9869 40.3153 74.1673 40.6388 74.8362 40.6388H74.8384ZM83.1111 51.6535C81.8702 51.8849 80.2751 51.4821 79.4082 50.5737C79.0165 50.1644 79.648 49.5452 80.0418 49.9588C80.6249 50.5715 81.6656 50.8565 82.5148 50.8372C83.5973 50.8136 84.5588 49.8559 83.945 48.7847C83.0935 47.302 80.9989 47.7177 79.9208 46.5521C79.0495 45.6116 79.4632 44.1332 80.4863 43.4798C81.5534 42.7963 83.3949 42.822 84.2728 43.8033C84.6512 44.2232 84.0176 44.8424 83.6391 44.4182C82.9307 43.6276 81.2563 43.7347 80.6161 44.5489C79.7074 45.7123 81.0671 46.3379 82.0176 46.6186C83.3245 47.0042 84.7744 47.7091 85.0121 49.1682C85.2013 50.3423 84.2684 51.4371 83.1111 51.6535Z" fill="#EE4E2C"/>
<path d="M83.4644 61.8705C83.1246 61.8705 82.8202 62.0119 82.6107 62.2352V61.9758C82.6107 61.7415 82.2257 61.7401 82.2257 61.9758V65.046C82.2257 65.2818 82.6107 65.2818 82.6107 65.046V63.6787C82.8202 63.902 83.1246 64.0421 83.4644 64.0421C84.0943 64.0421 84.6068 63.5553 84.6068 62.9563C84.6068 62.3572 84.0943 61.8705 83.4644 61.8705ZM83.4644 63.6496C83.0609 63.6496 82.7339 63.3376 82.7339 62.9563C82.7339 62.6123 82.9986 62.3253 83.3469 62.2712C83.3483 62.2712 83.3511 62.2698 83.3525 62.2698C83.3893 62.2643 83.4261 62.2615 83.4629 62.2615C83.7602 62.2615 84.0179 62.4321 84.1311 62.6761C84.1311 62.6775 84.1325 62.6789 84.1325 62.6789C84.1722 62.7635 84.1934 62.8578 84.1934 62.9549C84.1934 63.3376 83.8664 63.6482 83.4644 63.6482V63.6496ZM80.6274 64.0421C79.9975 64.0421 79.485 63.5553 79.485 62.9563C79.485 62.3572 79.9975 61.8705 80.6274 61.8705C81.2574 61.8705 81.7698 62.3572 81.7698 62.9563C81.7698 63.5553 81.2574 64.0421 80.6274 64.0421ZM80.6274 62.2629C80.2254 62.2629 79.897 62.5735 79.897 62.9563C79.897 63.339 80.224 63.6496 80.6274 63.6496C81.0295 63.6496 81.3579 63.339 81.3579 62.9563C81.3579 62.5735 81.0309 62.2629 80.6274 62.2629ZM89.812 62.9355C89.8021 62.4362 89.5332 61.9855 88.9768 61.8857C88.4969 61.7997 87.9363 62.0396 87.7311 62.4667C87.5187 62.9105 87.6079 63.5193 88.0269 63.8285C88.4799 64.1627 89.1863 64.0601 89.6521 63.8119C89.8687 63.6968 89.6747 63.382 89.4581 63.4957C89.1637 63.6524 88.7786 63.73 88.4488 63.6247C88.2025 63.547 88.0637 63.3445 88.0213 63.1171H89.6209C89.7229 63.1171 89.8149 63.0325 89.8135 62.9341L89.812 62.9355ZM88.034 62.7524C88.0368 62.7385 88.0411 62.7247 88.0453 62.7122C88.1374 62.414 88.4516 62.2421 88.7701 62.2338C89.1368 62.2241 89.3421 62.464 89.4058 62.7524H88.034ZM87.2512 62.9382C87.2413 62.439 86.9723 61.9883 86.4159 61.8885C85.936 61.8025 85.3755 62.0424 85.1702 62.4695C84.9578 62.9133 85.047 63.522 85.4661 63.8313C85.9191 64.1655 86.6255 64.0629 87.0912 63.8146C87.3078 63.6995 87.1139 63.3847 86.8973 63.4985C86.6028 63.6552 86.2178 63.7328 85.8879 63.6274C85.6416 63.5498 85.5029 63.3473 85.4604 63.1199H87.0601C87.162 63.1199 87.254 63.0353 87.2526 62.9368L87.2512 62.9382ZM85.4731 62.7552C85.476 62.7413 85.4802 62.7274 85.4845 62.715C85.5765 62.4168 85.8907 62.2449 86.2093 62.2365C86.5759 62.2268 86.7812 62.4667 86.8449 62.7552H85.4731ZM79.032 62.586V63.8548C79.032 64.0947 78.647 64.0947 78.647 63.8548V62.611C78.6342 62.3655 78.4191 62.2518 78.412 62.249C78.1388 62.1325 77.6405 62.1866 77.3446 62.5541V63.8548C77.3446 64.0947 76.9595 64.0947 76.9595 63.8548V60.5961C76.9595 60.3575 77.3446 60.3575 77.3446 60.5961V62.0604C77.816 61.7526 78.4162 61.7872 78.6979 61.9758C78.6979 61.9758 79.0363 62.1575 79.0306 62.5874L79.032 62.586ZM76.331 60.7458C75.9544 60.3381 75.1631 60.3284 74.7044 60.6127C74.2656 60.8845 74.0872 61.5002 74.4609 61.8899C74.9239 62.3738 75.8242 62.2019 76.1908 62.8162C76.4556 63.2613 76.0408 63.6593 75.5765 63.669C75.2126 63.676 74.7653 63.5581 74.5133 63.3029C74.3449 63.1324 74.0731 63.3889 74.2415 63.5595C74.6138 63.9367 75.3004 64.1045 75.8327 64.0074C76.3296 63.9172 76.7316 63.4624 76.6495 62.9743C76.5476 62.3683 75.9247 62.0757 75.3627 61.9148C74.9536 61.7983 74.3689 61.5376 74.7611 61.0551C75.0357 60.7167 75.7548 60.6709 76.0592 61.001C76.222 61.1771 76.4938 60.9205 76.331 60.7444V60.7458Z" fill="#EE4E2C"/>
<path fill-rule="evenodd" clip-rule="evenodd" d="M86.3596 72.9171H85.1379L86.4446 70.4973L84.2985 66.5257H85.6235L87.1071 69.27L88.5907 66.5257H89.8123L86.3596 72.9171ZM74.1895 71.0242H75.213V69.191H76.5932C78.0244 69.191 79.1852 68.2078 79.1852 66.9944C79.1852 65.781 78.0244 64.7979 76.5932 64.7979H74.1895C74.1895 66.8738 74.1895 68.9483 74.1895 71.0242ZM75.213 68.1884V65.8005H76.5932C77.3704 65.8005 78.0017 66.3343 78.0017 66.9944C78.0017 67.6531 77.3718 68.1884 76.5932 68.1884H75.213ZM83.0187 66.5659H83.9177V70.9854H83.0187V70.489C82.6181 70.8232 82.0986 71.0242 81.5323 71.0242C80.2639 71.0242 79.2362 70.0175 79.2362 68.775C79.2362 67.5325 80.2639 66.5257 81.5323 66.5257C82.1 66.5257 82.6181 66.7268 83.0187 67.061V66.5645V66.5659ZM81.5323 67.4742C82.2656 67.4742 82.8602 68.0566 82.8602 68.775C82.8602 69.4933 82.2656 70.0757 81.5323 70.0757C80.799 70.0757 80.2045 69.4933 80.2045 68.775C80.2045 68.0566 80.799 67.4742 81.5323 67.4742Z" fill="#EE4E2C"/>
</g>
<circle cx="25" cy="25" r="24.5" fill="white" stroke="#F2F2F2"/>
<path fill-rule="evenodd" clip-rule="evenodd" d="M13.9776 13.1768H15.7175C15.85 13.1768 15.9518 13.296 15.9329 13.429L15.1248 19.1182C15.0937 19.3372 15.2611 19.5333 15.4791 19.5333H18.5314C18.6181 19.5333 18.6845 19.6114 18.6719 19.6984L18.4351 21.3324C18.4228 21.4173 18.3511 21.4803 18.2664 21.4803H14.8151C13.7885 21.4803 12.804 20.6258 12.9488 19.5942L13.762 13.3686C13.7762 13.2588 13.8684 13.1768 13.9776 13.1768Z" fill="#E82529"/>
<path fill-rule="evenodd" clip-rule="evenodd" d="M19.7803 15.4473L18.9839 21.2493C18.9713 21.3414 19.0417 21.4235 19.1332 21.4235H20.8169C20.9366 21.4235 21.0381 21.334 21.0547 21.2136L21.8434 15.5059C21.8602 15.3744 21.7594 15.2578 21.6287 15.2578H19.9948C19.8867 15.2578 19.7953 15.3387 19.7803 15.4473Z" fill="#E82529"/>
<path fill-rule="evenodd" clip-rule="evenodd" d="M23.2527 20.9775C22.7964 20.9608 22.2799 20.6316 22.3444 20.1796C22.5435 18.7862 22.8526 16.6388 22.8905 16.4592C22.9465 16.1923 22.9974 15.7468 23.2287 15.5221C23.4998 15.2584 23.9194 15.1075 26.0073 15.1006C28.1386 15.0936 28.5515 16.6504 28.4384 17.6619C28.342 18.5277 28.0249 20.6669 27.9354 21.2645C27.9217 21.3554 27.8452 21.4223 27.7551 21.4223H26.1087C25.9881 21.4223 25.8954 21.3144 25.9122 21.1932C25.9955 20.5956 26.2188 19.0023 26.2945 18.5396C26.3885 17.9673 26.4637 17.3376 26.3133 17.089C26.2658 17.0107 26.1883 16.9381 26.0772 16.8802C25.4146 16.535 24.7766 17.3044 24.6735 18.0444L24.3532 20.3429C24.2922 20.7805 23.6942 20.9937 23.2527 20.9775Z" fill="#E82529"/>
<path fill-rule="evenodd" clip-rule="evenodd" d="M30.2237 12.8477H32.05C32.118 12.8477 32.1702 12.9086 32.1609 12.9769L31.0245 21.3322C31.0161 21.3942 30.9638 21.4404 30.9021 21.4404H29.0991C29.0241 21.4404 28.9665 21.3732 28.9768 21.2979L30.1128 12.9459C30.1205 12.8896 30.1678 12.8477 30.2237 12.8477Z" fill="#E82529"/>
<path fill-rule="evenodd" clip-rule="evenodd" d="M32.959 20.8015C32.1515 19.0165 32.4404 16.9265 33.7016 15.4274C33.7667 15.3502 33.8618 15.3057 33.962 15.3057H35.7739C35.9047 15.3057 35.9735 15.4629 35.8861 15.5614C34.6035 17.0061 34.295 19.0719 35.0996 20.8282L35.7049 22.1494C35.7756 22.3039 35.6644 22.4807 35.4966 22.4807H33.859C33.7734 22.4807 33.6958 22.4301 33.6601 22.3513L32.959 20.8015Z" fill="#E82529"/>
<path fill-rule="evenodd" clip-rule="evenodd" d="M22.1955 13.6866C22.0478 14.3188 21.4869 14.7893 20.8996 14.7893C20.3124 14.7893 19.862 14.2768 20.0098 13.6447C20.1574 13.0125 20.6436 12.5 21.3405 12.5C21.9277 12.5 22.3431 13.0544 22.1955 13.6866Z" fill="#E82529"/>
<path fill-rule="evenodd" clip-rule="evenodd" d="M24.0519 22.9025C23.9043 23.5347 23.3433 24.0051 22.756 24.0051C22.1688 24.0051 21.7184 23.4926 21.8662 22.8605C22.0139 22.2283 22.5001 21.7158 23.1969 21.7158C23.7841 21.7158 24.1996 22.2702 24.0519 22.9025Z" fill="#E82529"/>
<path fill-rule="evenodd" clip-rule="evenodd" d="M32.8858 30.4574C32.7614 31.0821 32.1946 31.5468 31.5771 31.5464C30.9596 31.5461 30.4611 31.0393 30.5856 30.4148C30.71 29.7901 31.1963 29.2838 31.9289 29.2842C32.5464 29.2846 33.0103 29.8327 32.8858 30.4574Z" fill="#E82529"/>
<path fill-rule="evenodd" clip-rule="evenodd" d="M17.3406 27.3448H16.235C16.1939 27.3448 16.1657 27.3028 16.1808 27.264L17.143 24.7851C17.1614 24.7379 17.23 24.748 17.2344 24.7985L17.4507 27.2225C17.4566 27.2881 17.4057 27.3448 17.3406 27.3448ZM20.0192 30.4577L18.7854 22.9623C18.7314 22.6346 18.4519 22.3945 18.1246 22.3945H16.8866C16.509 22.3945 16.1662 22.6183 16.0099 22.9671L12.6863 30.467C12.6381 30.5758 12.7169 30.6986 12.8343 30.698L14.5612 30.6878C14.6794 30.6871 14.7858 30.6152 14.8319 30.5049L15.406 29.1342C15.4216 29.0968 15.4577 29.0726 15.4977 29.0726H17.5876C17.6389 29.0726 17.6819 29.1121 17.6868 29.1639L17.8116 30.4609C17.826 30.6118 17.9511 30.727 18.1005 30.727H19.7944C19.9353 30.727 20.0424 30.5986 20.0192 30.4577Z" fill="#E82529"/>
<path fill-rule="evenodd" clip-rule="evenodd" d="M19.1957 31.8156L19.5946 33.0661C19.6662 33.2719 19.7203 33.3176 19.8604 33.2876C20.3642 33.1798 21.5816 32.8147 22.1772 31.9969C22.9537 30.9307 23.0601 29.0459 23.1972 28.0879C23.3101 27.2989 23.5572 25.3566 23.6408 24.6964C23.6559 24.5776 23.5647 24.4727 23.4466 24.4727H21.8985C21.7617 24.4727 21.646 24.5752 21.6276 24.7127C21.5028 25.6452 21.0532 28.9983 20.9746 29.463C20.8833 30.0038 20.8651 30.7828 20.0768 31.2478C19.6834 31.4797 19.4817 31.524 19.326 31.5978C19.2468 31.6353 19.1573 31.6755 19.1957 31.8156Z" fill="#E82529"/>
<path fill-rule="evenodd" clip-rule="evenodd" d="M27.8567 27.8045C27.77 28.4929 27.227 29.2759 26.6063 28.9657C26.5759 28.9505 26.5471 28.9329 26.5203 28.9125C26.1326 28.6175 26.1004 28.0112 26.3264 27.1427C26.5525 26.274 27.1177 26.1266 27.3598 26.1102C27.7628 26.0828 28.0196 26.5107 27.9691 26.9114L27.8567 27.8045ZM29.9505 24.6976C29.4285 24.565 28.5508 24.2739 27.1398 24.3788C25.8381 24.4756 24.3681 25.0867 24.0928 27.6949C23.8175 30.303 24.9923 30.8061 26.6809 30.8806C27.9184 30.9353 28.8897 30.5897 29.3205 30.4011C29.4704 30.3355 29.5748 30.1949 29.5968 30.0306L30.2207 25.0091C30.2452 24.8098 30.147 24.7474 29.9505 24.6976Z" fill="#E82529"/>
<path fill-rule="evenodd" clip-rule="evenodd" d="M31.1552 28.4514L31.6096 23.6429C31.6259 23.4707 31.7683 23.4004 31.9388 23.4004H33.5061C33.6521 23.4004 33.7139 23.5129 33.6736 23.697L32.717 28.512C32.6976 28.6052 32.6168 28.6718 32.5229 28.6718H31.3525C31.2356 28.6718 31.144 28.5696 31.1552 28.4514Z" fill="#E82529"/>
<path fill-rule="evenodd" clip-rule="evenodd" d="M12.814 37.3191C13.1243 37.4932 13.4868 37.5438 13.8319 37.4608C15.2064 37.1303 18.2481 36.2405 24.6823 35.2966C32.7409 34.1142 38.6974 34.1155 38.7341 34.1155C38.7353 34.1155 38.7348 34.1152 38.7358 34.1146C38.7406 34.1116 38.7394 34.1043 38.7338 34.1036C38.4078 34.0602 33.182 33.3957 24.7779 34.2287C19.1377 34.7878 15.1165 35.5545 12.9911 36.0231C12.3461 36.1654 12.2378 36.996 12.814 37.3191Z" fill="#E82529"/>
<g clip-path="url(#clip1_230_1495)">
<path d="M38 25C38 11.1929 49.1929 0 63 0C76.8071 0 88 11.1929 88 25C88 38.8071 76.8071 50 63 50C49.1929 50 38 38.8071 38 25Z" fill="#4E3394"/>
<circle cx="63" cy="25" r="24.5" fill="white" stroke="#F2F2F2"/>
<path d="M63.1418 29.8577C68.2412 29.7794 72.3115 25.5821 72.2332 20.4827C72.1549 15.3834 67.9575 11.3131 62.8582 11.3914C57.7588 11.4697 53.6885 15.667 53.7668 20.7664C53.8451 25.8657 58.0425 29.9361 63.1418 29.8577Z" fill="white"/>
<path d="M62.9975 14.8994C59.7782 14.8994 57.168 17.4606 57.168 20.6248C57.168 23.789 59.7782 26.3502 62.9975 26.3502C66.2168 26.3502 68.8265 23.789 68.8265 20.6248C68.8265 17.4606 66.2168 14.8994 62.9975 14.8994ZM62.9975 24.5234C60.9285 24.5234 59.2515 22.7779 59.2515 20.6259C59.2515 18.474 60.9285 16.7284 62.9975 16.7284C65.0665 16.7284 66.7435 18.474 66.7435 20.6259C66.7435 22.7779 65.066 24.5245 62.9975 24.5245V24.5234Z" fill="#4E3394"/>
<path d="M58.3873 34.2617C57.1697 34.2617 56.1826 35.2155 56.1826 36.3919C56.1826 37.5682 57.1697 38.5223 58.3873 38.5223C59.605 38.5223 60.5906 37.5685 60.5906 36.3919C60.5906 35.2152 59.6047 34.2617 58.3873 34.2617ZM58.3873 37.8423C57.6047 37.8423 56.9705 37.1931 56.9705 36.3919C56.9705 35.5907 57.6047 34.9414 58.3873 34.9414C59.1699 34.9414 59.8039 35.5909 59.8039 36.3919C59.8039 37.1928 59.1696 37.8423 58.3873 37.8423Z" fill="#4E3394"/>
<path d="M67.6134 34.2617C66.3957 34.2617 65.4102 35.2155 65.4102 36.3919C65.4102 37.5682 66.3972 38.5223 67.6134 38.5223C68.8296 38.5223 69.8193 37.5691 69.8193 36.3933C69.8193 35.2175 68.8311 34.2617 67.6134 34.2617ZM67.6134 37.8423C66.8311 37.8423 66.1966 37.1931 66.1966 36.3919C66.1966 35.5907 66.8311 34.9414 67.6134 34.9414C68.3957 34.9414 69.0302 35.5909 69.0302 36.3919C69.0302 37.1928 68.396 37.8423 67.6134 37.8423Z" fill="#4E3394"/>
<path d="M63.7214 34.3682V35.0479H64.1536L63.1609 37.3693L62.1096 35.0479H62.5405V34.3682H60.7861V35.0479H61.2268L62.4421 37.7094C62.4421 37.7094 62.6151 38.2178 62.8728 38.3833C63.1078 38.5347 63.4051 38.5232 63.4051 38.5232L64.9829 35.0484L65.1142 34.7929V34.3682H63.7214Z" fill="#4E3394"/>
</g>
<path d="M76 25C76 11.1929 87.1929 0 101 0C114.807 0 126 11.1929 126 25C126 38.8071 114.807 50 101 50C87.1929 50 76 38.8071 76 25Z" fill="#00AED6"/>
<circle cx="101" cy="25" r="24.5" fill="white" stroke="#F2F2F2"/>
<path d="M100.855 29.1164C106.727 29.1164 111.486 25.2568 111.486 20.4957C111.486 15.7346 106.727 11.875 100.855 11.875C94.9841 11.875 90.2246 15.7346 90.2246 20.4957C90.2246 25.2568 94.9841 29.1164 100.855 29.1164Z" fill="#00AED6"/>
<path fill-rule="evenodd" clip-rule="evenodd" d="M107.05 20.2281C107.015 19.7037 106.724 19.2116 106.242 18.8585C105.759 18.5055 105.123 18.32 104.471 18.3423H97.7568C97.6984 18.3421 97.6406 18.3327 97.5867 18.3145C97.5328 18.2963 97.4839 18.2698 97.4427 18.2364C97.4016 18.203 97.369 18.1634 97.3468 18.1199C97.3246 18.0764 97.3133 18.0298 97.3135 17.9827C97.3135 17.7841 97.5118 17.6231 97.7568 17.6231H104.56C104.543 17.261 104.384 16.9125 104.106 16.6278C103.827 16.3431 103.444 16.137 103.011 16.0391C101.028 15.7552 98.9993 15.7552 97.017 16.0391C96.4648 16.1505 95.9669 16.3929 95.5878 16.735C95.2088 17.0771 94.966 17.503 94.8911 17.9576C94.5766 19.6496 94.5766 21.3698 94.8911 23.0618C95.0064 23.5415 95.2997 23.9817 95.7322 24.3243C96.1648 24.6668 96.7162 24.8956 97.3135 24.9803C99.7742 25.2282 102.264 25.2282 104.724 24.9803C105.259 24.8905 105.746 24.6673 106.115 24.3423C106.484 24.0174 106.716 23.6073 106.78 23.17C106.998 22.1994 107.09 21.2137 107.05 20.2281ZM104.844 21.435V21.7543C104.845 21.8014 104.833 21.848 104.811 21.8915C104.789 21.9351 104.756 21.9747 104.715 22.0081C104.674 22.0414 104.625 22.068 104.571 22.0861C104.517 22.1043 104.46 22.1137 104.401 22.1139C104.343 22.1137 104.285 22.1043 104.231 22.0861C104.177 22.068 104.128 22.0414 104.087 22.0081C104.046 21.9747 104.013 21.9351 103.991 21.8915C103.969 21.848 103.958 21.8014 103.958 21.7543V21.435C103.857 21.3626 103.786 21.2673 103.754 21.1615C103.721 21.0558 103.73 20.9447 103.778 20.843C103.826 20.7412 103.912 20.6537 104.023 20.5919C104.134 20.5301 104.266 20.4971 104.401 20.4971C104.536 20.4971 104.668 20.5301 104.78 20.5919C104.891 20.6537 104.976 20.7412 105.024 20.843C105.072 20.9447 105.081 21.0558 105.049 21.1615C105.017 21.2673 104.945 21.3626 104.844 21.435Z" fill="white"/>
<path d="M89.5658 37.188C89.7209 37.3744 89.9304 37.5247 90.1745 37.6249C90.4186 37.725 90.6893 37.7716 90.961 37.7603C91.6117 37.7603 92.0897 37.4116 92.0897 36.9375V36.6875H92.0738C91.7175 36.98 91.2313 37.1327 90.734 37.1089C90.3474 37.1178 89.9649 37.0403 89.6262 36.8843C89.2876 36.7284 89.0052 36.4998 88.8082 36.2221C88.61 35.9437 88.5037 35.6265 88.5001 35.3027C88.4965 34.9789 88.5959 34.66 88.788 34.3786C88.979 34.0982 89.2565 33.8654 89.5918 33.7045C89.927 33.5436 90.3078 33.4604 90.6946 33.4635C90.9456 33.4501 91.1973 33.4793 91.4344 33.5494C91.6714 33.6195 91.889 33.729 92.0738 33.8712H92.0897V33.5293H93.2026V36.9247C93.2026 37.9116 92.2706 38.5959 90.961 38.5959C90.5377 38.615 90.1151 38.5497 89.728 38.4055C89.341 38.2613 89.0007 38.0424 88.7353 37.7667L89.5658 37.188ZM92.0431 35.0753C92.0431 34.6808 91.5097 34.3187 90.9144 34.3187C90.1617 34.3187 89.6601 34.7004 89.6601 35.2727C89.6382 35.5443 89.7588 35.8098 89.9918 35.9986C90.1064 36.0919 90.2443 36.1631 90.3956 36.2071C90.5468 36.2511 90.7079 36.2669 90.8673 36.2532C91.518 36.2532 92.0431 35.9113 92.0431 35.4835V35.0753ZM96.1327 33.4306C97.4889 33.4306 98.4767 34.2397 98.4767 35.2727C98.4767 36.3058 97.4889 37.1153 96.1327 37.1153C95.7304 37.137 95.3288 37.066 94.9718 36.9099C94.6148 36.7539 94.3162 36.519 94.1087 36.2308C93.9 35.9417 93.7896 35.6105 93.7896 35.273C93.7896 34.9354 93.9 34.6043 94.1087 34.3151C94.3162 34.0269 94.6148 33.792 94.9718 33.636C95.3288 33.4799 95.7304 33.4089 96.1327 33.4306ZM96.1327 34.2854C95.8202 34.288 95.5217 34.394 95.3028 34.5799C95.0839 34.7659 94.9624 35.0167 94.965 35.2773C94.9653 35.5379 95.0896 35.7877 95.3105 35.972C95.5315 36.1562 95.8311 36.2598 96.1436 36.2601C96.4561 36.2586 96.7552 36.1539 96.9751 35.9687C97.1951 35.7836 97.3179 35.5333 97.3168 35.2727C97.324 35.141 97.2983 35.0095 97.2412 34.8866C97.1841 34.7636 97.0969 34.652 96.9851 34.5587C96.8739 34.4659 96.7406 34.3936 96.5937 34.3466C96.4468 34.2996 96.2898 34.2789 96.1327 34.2858V34.2854ZM99.0787 33.5293H100.191V33.8383H100.208C100.388 33.6995 100.599 33.5919 100.829 33.5219C101.059 33.4519 101.303 33.4208 101.548 33.4306C102.743 33.4489 103.701 34.2662 103.703 35.2695C103.705 36.2733 102.75 37.0934 101.555 37.1153C101.084 37.1245 100.623 36.9942 100.255 36.7469H100.239V38.4972H99.0787V33.5293ZM101.368 34.2927C100.756 34.2927 100.239 34.6543 100.239 35.0492V35.4899C100.239 35.9113 100.741 36.2596 101.375 36.2596C101.687 36.2579 101.985 36.1531 102.204 35.9681C102.423 35.7831 102.545 35.5332 102.543 35.2732C102.543 35.1444 102.513 35.0169 102.454 34.8979C102.395 34.7789 102.308 34.6708 102.199 34.5797C102.09 34.4886 101.96 34.4164 101.818 34.367C101.675 34.3177 101.522 34.2923 101.368 34.2922V34.2927ZM105.938 34.9372C106.699 34.8517 106.926 34.7599 106.926 34.582C106.926 34.3517 106.636 34.2136 106.189 34.2136C105.956 34.1975 105.723 34.2517 105.533 34.3663C105.343 34.4809 105.209 34.6484 105.154 34.8385L104.057 34.6479C104.214 33.9371 105.084 33.4306 106.157 33.4306C107.372 33.4306 108.126 33.9503 108.126 34.7987V37.0166H107.082V36.6349H107.066C106.892 36.7996 106.675 36.9287 106.432 37.012C106.189 37.0953 105.925 37.1307 105.663 37.1153C104.746 37.1153 104.112 36.6943 104.112 36.0754C104.112 35.424 104.629 35.0885 105.938 34.9372H105.938ZM107.02 35.3056H107.004C106.902 35.4309 106.683 35.5031 106.119 35.5891C105.437 35.6942 105.194 35.8057 105.194 36.0096C105.194 36.2203 105.398 36.3127 105.836 36.3127C106.503 36.3127 107.02 36.0558 107.02 35.7202V35.3056H107.02ZM110.333 36.826L108.413 33.5293H109.691L110.953 35.8057H110.968L112.214 33.5293H113.5L110.624 38.4981H109.346L110.333 36.826Z" fill="#00AED6"/>
<defs>
<clipPath id="clip0_230_1495">
<path d="M57 55C57 41.1929 68.1929 30 82 30C95.8071 30 107 41.1929 107 55C107 68.8071 95.8071 80 82 80C68.1929 80 57 68.8071 57 55Z" fill="white"/>
</clipPath>
<clipPath id="clip1_230_1495">
<path d="M38 25C38 11.1929 49.1929 0 63 0C76.8071 0 88 11.1929 88 25C88 38.8071 76.8071 50 63 50C49.1929 50 38 38.8071 38 25Z" fill="white"/>
</clipPath>
</defs>
</svg>
