<svg width="32" height="32" viewBox="0 0 32 32" fill="none" xmlns="http://www.w3.org/2000/svg">
<mask id="mask0_405_11052" style="mask-type:alpha" maskUnits="userSpaceOnUse" x="0" y="0" width="32" height="32">
<path d="M16 32C24.8366 32 32 24.8366 32 16C32 7.16344 24.8366 0 16 0C7.16344 0 0 7.16344 0 16C0 24.8366 7.16344 32 16 32Z" fill="white"/>
</mask>
<g mask="url(#mask0_405_11052)">
<path d="M16 32C24.8366 32 32 24.8366 32 16C32 7.16344 24.8366 0 16 0C7.16344 0 0 7.16344 0 16C0 24.8366 7.16344 32 16 32Z" fill="white"/>
<path d="M20.1567 25.8191H20.1533C20.058 25.8324 17.8522 26.135 16.1121 25.8624C14.6487 25.6327 14.0977 24.9264 13.9795 24.0858C13.9638 23.9718 13.9554 23.8569 13.9543 23.7419C13.9721 22.9056 14.5285 21.7552 15.9361 20.1781C15.9361 20.1235 17.2067 18.8423 18.6468 17.4102C20.6374 18.6377 22.2206 20.4842 22.6033 22.2095C22.6033 22.2095 22.6905 22.6606 22.6933 22.8951C22.7108 24.5428 21.9184 25.4453 20.1567 25.8191Z" fill="url(#paint0_linear_405_11052)"/>
<path d="M23.9997 10.3649C24.0068 10.9377 23.8924 11.5058 23.6634 12.034C23.4345 12.5622 23.0959 13.0392 22.6687 13.4355C22.6585 13.4453 15.9359 20.1226 15.9365 20.1771C14.5289 21.7542 13.9726 22.904 13.9548 23.741C13.9519 23.8561 13.9604 23.9712 13.98 24.0848C14.0981 24.9254 14.6492 25.6317 16.1125 25.8614C17.8526 26.1341 20.0584 25.8314 20.1537 25.8181C18.8196 26.059 7.57772 27.3364 8.01227 17.2849C8.29604 10.6979 15.0922 5.80852 19.67 6.00576C22.6266 6.13309 23.9738 8.04849 23.9997 10.3649Z" fill="url(#paint1_linear_405_11052)"/>
</g>
<defs>
<linearGradient id="paint0_linear_405_11052" x1="15.348" y1="20.1061" x2="19.4463" y2="23.1847" gradientUnits="userSpaceOnUse">
<stop stop-color="#925F20"/>
<stop offset="1" stop-color="#B87828"/>
</linearGradient>
<linearGradient id="paint1_linear_405_11052" x1="5209.12" y1="7486" x2="5209.12" y2="5982.2" gradientUnits="userSpaceOnUse">
<stop offset="0.08" stop-color="#BD8430"/>
<stop offset="0.35" stop-color="#D78732"/>
<stop offset="0.55" stop-color="#D79D4A"/>
<stop offset="0.82" stop-color="#C07D2A"/>
<stop offset="1" stop-color="#BD8430"/>
</linearGradient>
</defs>
</svg>
