<svg width="25" height="24" viewBox="0 0 25 24" fill="none" xmlns="http://www.w3.org/2000/svg">
<path d="M12.49 2C6.97 2 2.5 6.48 2.5 12C2.5 17.52 6.97 22 12.49 22C18.02 22 22.5 17.52 22.5 12C22.5 6.48 18.02 2 12.49 2ZM12.5 20C8.08 20 4.5 16.42 4.5 12C4.5 7.58 8.08 4 12.5 4C16.92 4 20.5 7.58 20.5 12C20.5 16.42 16.92 20 12.5 20ZM12.28 7H12.22C11.82 7 11.5 7.32 11.5 7.72V12.44C11.5 12.79 11.68 13.12 11.99 13.3L16.14 15.79C16.48 15.99 16.92 15.89 17.12 15.55C17.33 15.21 17.22 14.76 16.87 14.56L13 12.26V7.72C13 7.32 12.68 7 12.28 7Z" fill="#383838"/>
</svg>
