<svg width="200" height="194" viewBox="0 0 200 194" fill="none" xmlns="http://www.w3.org/2000/svg">
<path d="M99.7695 193.716C154.871 193.716 199.539 169.634 199.539 139.928C199.539 110.222 154.871 86.1406 99.7695 86.1406C44.6683 86.1406 0 110.222 0 139.928C0 169.634 44.6683 193.716 99.7695 193.716Z" fill="#F5F5F5"/>
<path d="M68.6034 167.016C84.2911 167.016 97.0085 160.137 97.0085 151.652C97.0085 143.166 84.2911 136.288 68.6034 136.288C52.9156 136.288 40.1982 143.166 40.1982 151.652C40.1982 160.137 52.9156 167.016 68.6034 167.016Z" fill="#E0E0E0"/>
<path d="M107.358 185.639L167.827 152.939C167.939 152.902 168.036 152.834 168.105 152.743C168.173 152.653 168.211 152.544 168.211 152.433C168.211 152.321 168.173 152.213 168.105 152.122C168.036 152.031 167.939 151.963 167.827 151.926L135.917 134.677C135.627 134.538 135.306 134.466 134.979 134.466C134.654 134.466 134.333 134.538 134.043 134.677L73.5887 167.385C73.4743 167.42 73.3747 167.487 73.304 167.579C73.2334 167.67 73.1953 167.78 73.1953 167.893C73.1953 168.005 73.2334 168.115 73.304 168.206C73.3747 168.297 73.4743 168.365 73.5887 168.399L105.499 185.652C105.789 185.785 106.109 185.852 106.431 185.849C106.753 185.847 107.07 185.776 107.358 185.639Z" fill="#E0E0E0"/>
<path d="M147.463 142.538C146.913 139.002 148.494 131.306 151.695 126.181C154.895 121.056 159.132 116.934 163.719 117.736C167.992 118.482 168.044 123.746 163.622 127.741C159.201 131.736 151.385 139.006 150.108 145.02L149.369 150.332L147.463 142.538Z" fill="#D0AD6B"/>
<path opacity="0.15" d="M147.463 142.538C146.913 139.002 148.494 131.306 151.695 126.181C154.895 121.056 159.132 116.934 163.719 117.736C167.992 118.482 168.044 123.746 163.622 127.741C159.201 131.736 151.385 139.006 150.108 145.02L149.369 150.332L147.463 142.538Z" fill="black"/>
<path d="M147.941 147.412C147.999 147.4 148.053 147.368 148.092 147.325C148.132 147.281 148.154 147.226 148.158 147.17C148.8 134.76 157.685 123.525 163.577 120.505C163.609 120.489 163.638 120.467 163.661 120.44C163.684 120.414 163.701 120.382 163.712 120.349C163.722 120.316 163.725 120.282 163.721 120.247C163.717 120.213 163.705 120.18 163.687 120.15C163.671 120.119 163.648 120.092 163.621 120.07C163.592 120.048 163.559 120.032 163.525 120.022C163.489 120.012 163.452 120.01 163.417 120.013C163.38 120.018 163.345 120.028 163.314 120.046C157.3 123.122 148.25 134.543 147.589 147.143C147.587 147.178 147.592 147.212 147.604 147.244C147.617 147.276 147.636 147.306 147.66 147.331C147.685 147.357 147.715 147.377 147.747 147.392C147.78 147.406 147.817 147.415 147.853 147.417L147.941 147.412Z" fill="white"/>
<path d="M147.852 157.846C148.149 155.775 150.224 152.14 153.994 148.86C158.156 145.229 163.807 143.044 164.793 140.527C165.981 137.494 163.049 135.207 158.374 136.411C153.698 137.616 146.284 144.847 146.377 154.176L147.852 157.846Z" fill="#D0AD6B"/>
<path opacity="0.3" d="M147.852 157.846C148.149 155.775 150.224 152.14 153.994 148.86C158.156 145.229 163.807 143.044 164.793 140.527C165.981 137.494 163.049 135.207 158.374 136.411C153.698 137.616 146.284 144.847 146.377 154.176L147.852 157.846Z" fill="black"/>
<path d="M146.608 155.887C146.66 155.874 146.706 155.848 146.743 155.812C146.78 155.776 146.805 155.732 146.816 155.683C149.152 144.803 156.991 140.024 160.824 139.015C160.86 139.005 160.893 138.99 160.921 138.968C160.95 138.946 160.974 138.921 160.992 138.891C161.009 138.86 161.021 138.827 161.025 138.793C161.029 138.759 161.026 138.725 161.016 138.692C161.006 138.659 160.99 138.629 160.967 138.601C160.945 138.575 160.916 138.552 160.884 138.535C160.852 138.519 160.816 138.507 160.78 138.504C160.744 138.5 160.707 138.503 160.672 138.512C156.445 139.63 148.648 144.479 146.271 155.579C146.257 155.647 146.272 155.717 146.312 155.774C146.353 155.832 146.416 155.872 146.488 155.887C146.527 155.894 146.568 155.894 146.608 155.887Z" fill="white"/>
<path d="M54.4233 137.802C54.4233 137.802 55.1633 128.928 51.9445 121.337C48.7256 113.746 43.2638 108.407 37.4459 106.896C31.6281 105.384 25.8009 109.617 31.4014 114.261C37.002 118.906 47.4955 124.517 49.9605 138.526L54.4233 137.802Z" fill="#D0AD6B"/>
<path opacity="0.15" d="M54.4233 137.802C54.4233 137.802 55.1633 128.928 51.9445 121.337C48.7256 113.746 43.2638 108.407 37.4459 106.896C31.6281 105.384 25.8009 109.617 31.4014 114.261C37.002 118.906 47.4955 124.517 49.9605 138.526L54.4233 137.802Z" fill="black"/>
<path d="M53.1567 135.232H53.2214C53.3054 135.216 53.3792 135.17 53.4269 135.103C53.4746 135.037 53.4921 134.955 53.4759 134.876C50.2107 119.356 39.6016 111.193 34.4173 109.044C34.3386 109.014 34.2502 109.013 34.1708 109.041C34.0914 109.07 34.0272 109.127 33.9918 109.2C33.9742 109.236 33.9645 109.275 33.963 109.314C33.9617 109.353 33.9688 109.393 33.9839 109.429C33.9989 109.466 34.0217 109.5 34.0509 109.528C34.0801 109.557 34.1151 109.579 34.1537 109.595C39.2131 111.696 49.6142 119.712 52.8515 134.989C52.866 135.056 52.904 135.116 52.9593 135.16C53.0147 135.204 53.0842 135.229 53.1567 135.232Z" fill="white"/>
<path d="M29.4495 127.343C29.6438 128.378 30.6012 129.119 31.5122 129.734C32.4233 130.349 33.4083 131.034 33.7228 132.026C34.3471 134.067 31.8729 136.151 32.5944 138.161C32.7789 138.573 33.0509 138.945 33.3935 139.254C33.7361 139.565 34.1424 139.806 34.5876 139.964C35.3185 140.242 36.0641 140.484 36.8214 140.692C37.1858 140.77 37.5549 140.828 37.9267 140.865C39.0135 140.965 40.1651 141.186 40.9929 141.913C42.2925 143.061 42.2786 144.946 42.8428 146.55C43.1939 147.496 43.7597 148.36 44.5015 149.082C45.2432 149.804 46.1431 150.366 47.1391 150.73C48.7948 151.342 51.4587 151.597 52.0923 150.974C52.5548 150.514 51.9997 148.651 52.1477 148.018C52.5181 146.401 52.7256 144.754 52.7675 143.101C52.7517 142.348 52.8339 141.595 53.0126 140.861C53.2392 140.042 53.4751 139.218 53.6693 138.4C53.9006 137.507 54.3075 136.866 54.2012 135.891C54.0495 134.962 53.7502 134.06 53.3132 133.214C52.9309 132.37 52.5409 131.526 52.1432 130.683C51.7117 129.676 51.1493 128.723 50.469 127.845C49.8425 127.105 49.0611 126.492 48.1727 126.045C47.2844 125.599 46.3078 125.326 45.3032 125.246C43.6429 125.124 41.8624 125.6 40.2159 125.145C38.5695 124.691 37.1775 123.941 35.5172 123.664C33.783 123.377 31.8637 123.664 30.5225 124.795C30.1347 125.105 29.834 125.499 29.6469 125.943C29.4598 126.388 29.3921 126.868 29.4495 127.343Z" fill="#D0AD6B"/>
<path opacity="0.3" d="M29.4495 127.343C29.6438 128.378 30.6012 129.119 31.5122 129.734C32.4233 130.349 33.4083 131.034 33.7228 132.026C34.3471 134.067 31.8729 136.151 32.5944 138.161C32.7789 138.573 33.0509 138.945 33.3935 139.254C33.7361 139.565 34.1424 139.806 34.5876 139.964C35.3185 140.242 36.0641 140.484 36.8214 140.692C37.1858 140.77 37.5549 140.828 37.9267 140.865C39.0135 140.965 40.1651 141.186 40.9929 141.913C42.2925 143.061 42.2786 144.946 42.8428 146.55C43.1939 147.496 43.7597 148.36 44.5015 149.082C45.2432 149.804 46.1431 150.366 47.1391 150.73C48.7948 151.342 51.4587 151.597 52.0923 150.974C52.5548 150.514 51.9997 148.651 52.1477 148.018C52.5181 146.401 52.7256 144.754 52.7675 143.101C52.7517 142.348 52.8339 141.595 53.0126 140.861C53.2392 140.042 53.4751 139.218 53.6693 138.4C53.9006 137.507 54.3075 136.866 54.2012 135.891C54.0495 134.962 53.7502 134.06 53.3132 133.214C52.9309 132.37 52.5409 131.526 52.1432 130.683C51.7117 129.676 51.1493 128.723 50.469 127.845C49.8425 127.105 49.0611 126.492 48.1727 126.045C47.2844 125.599 46.3078 125.326 45.3032 125.246C43.6429 125.124 41.8624 125.6 40.2159 125.145C38.5695 124.691 37.1775 123.941 35.5172 123.664C33.783 123.377 31.8637 123.664 30.5225 124.795C30.1347 125.105 29.834 125.499 29.6469 125.943C29.4598 126.388 29.3921 126.868 29.4495 127.343Z" fill="black"/>
<path d="M48.0648 134.314C48.0465 134.277 48.0177 134.246 47.9816 134.223C42.9915 128.495 35.6613 126.103 33.2195 125.761C33.1847 125.751 33.1484 125.749 33.1128 125.755C33.0772 125.76 33.0432 125.772 33.013 125.791C32.9828 125.809 32.9572 125.834 32.9377 125.862C32.9183 125.89 32.9054 125.922 32.9002 125.956C32.8949 125.989 32.8973 126.023 32.9071 126.055C32.9169 126.088 32.9339 126.118 32.9572 126.144C32.9803 126.17 33.0091 126.19 33.0416 126.206C33.074 126.22 33.1095 126.227 33.1455 126.228C35.4579 126.554 42.2516 128.759 47.1169 133.985C45.2624 133.533 43.3283 133.446 41.4364 133.729C39.5443 134.013 37.7356 134.66 36.1238 135.631C36.0968 135.649 36.0738 135.672 36.0565 135.698C36.0392 135.725 36.0278 135.754 36.023 135.785C36.0183 135.816 36.0202 135.848 36.0288 135.877C36.0374 135.907 36.0524 135.936 36.0729 135.96C36.0963 135.991 36.1276 136.016 36.1639 136.032C36.2003 136.049 36.2406 136.057 36.281 136.055C36.3331 136.055 36.3835 136.038 36.4244 136.008C38.081 135.022 39.9476 134.387 41.8936 134.147C43.8397 133.908 45.8181 134.07 47.6903 134.621C50.6071 138.002 52.2579 142.186 52.389 146.532C52.3913 146.592 52.4174 146.648 52.462 146.689C52.5067 146.731 52.5665 146.755 52.6295 146.757C52.6962 146.755 52.7592 146.729 52.805 146.683C52.8509 146.638 52.8759 146.577 52.8746 146.515C52.7477 142.062 51.0571 137.775 48.0648 134.314Z" fill="white"/>
<path d="M53.5225 147.796C55.4464 148.663 57.5322 148.537 59.7474 147.588L60.455 136.076L52.6484 135.274L53.5225 147.796Z" fill="#FFADAD"/>
<path d="M68.6002 140.756C69.5899 142.458 74.0388 142.844 75.306 140.613L75.8471 129.348L67.666 129.512L68.6002 140.756Z" fill="#FFADAD"/>
<path d="M67.7258 158.19C67.9385 158.368 67.9245 159.62 67.7258 159.967C67.5269 160.314 66.1256 161.514 63.5634 161.769C61.1308 162.012 58.9387 161.769 57.4727 160.972C56.0067 160.174 55.2805 159.239 55.0955 157.939C54.9106 156.639 55.0215 155.378 54.3186 154.399C53.6711 153.493 52.6583 152.484 52.4271 151.991C51.923 150.915 52.3069 149.339 52.3069 149.339L67.7258 158.19Z" fill="#263238"/>
<path d="M60.5983 147.052C60.6545 147.543 60.7741 148.026 60.9543 148.49C61.3635 149.486 61.9009 150.432 62.5545 151.307C62.879 151.762 63.2359 152.196 63.6228 152.606C64.3952 153.404 65.334 154.049 66.148 154.812C67.007 155.529 67.5755 156.502 67.7574 157.567C67.9331 159.356 65.8797 160.033 64.2888 160.353C62.5707 160.694 60.7929 160.671 59.086 160.284C58.1882 160.095 57.3675 159.668 56.7226 159.053C56.0778 158.438 55.6362 157.662 55.4509 156.817C55.3446 156.323 55.3538 155.812 55.2752 155.314C55.0165 154.178 54.4638 153.119 53.6658 152.229C53.2029 151.713 52.7985 151.154 52.4587 150.561C51.9177 149.469 52.2737 148.208 52.5466 147.094C52.7871 146.133 52.972 144.994 53.3328 145.071L53.3836 145.812C53.5086 146.016 53.749 146.007 53.8462 146.246C53.9285 146.496 54.0337 146.74 54.1606 146.973C54.3539 147.34 54.6621 147.642 55.0439 147.84C55.0439 147.164 55.0439 146.484 55.0439 145.807C55.0195 145.597 55.0699 145.386 55.1873 145.206C55.3507 145.056 55.562 144.962 55.7886 144.937C57.1173 144.592 58.4942 144.439 59.8722 144.482C59.975 144.479 60.0774 144.496 60.1729 144.532C60.2684 144.568 60.3551 144.622 60.4272 144.69C60.5107 144.82 60.5495 144.972 60.5382 145.123C60.5222 145.767 60.5423 146.41 60.5983 147.052Z" fill="#455A64"/>
<path d="M62.8283 151.671C62.0976 151.194 60.516 151.238 59.6327 151.359C58.7482 151.461 57.9052 151.769 57.1816 152.256C57.0767 152.335 56.9452 152.375 56.8111 152.371C56.6769 152.366 56.549 152.316 56.4509 152.231C56.3928 152.181 56.3468 152.122 56.316 152.055C56.2852 151.987 56.2705 151.915 56.2727 151.842C56.2749 151.769 56.294 151.697 56.3287 151.632C56.3636 151.566 56.4131 151.509 56.474 151.463C57.2742 150.873 58.2358 150.505 59.2488 150.402C61.3901 150.189 62.0237 150.515 62.0237 150.515C62.0237 150.515 63.0272 151.073 62.8283 151.671Z" fill="#F5F5F5"/>
<path d="M64.5349 153.451C63.6099 152.987 61.8711 153.117 61.0017 153.234C60.1333 153.346 59.3117 153.67 58.6198 154.175C58.5137 154.25 58.3823 154.289 58.2486 154.283C58.115 154.278 57.9877 154.229 57.8891 154.144C57.8313 154.096 57.7853 154.036 57.7545 153.969C57.7238 153.902 57.7089 153.83 57.7112 153.757C57.7134 153.685 57.7325 153.613 57.7672 153.548C57.802 153.484 57.8515 153.426 57.9123 153.382C58.7179 152.763 59.6917 152.366 60.7242 152.237C62.8654 152.026 63.4435 152.419 63.4435 152.419C63.6968 152.502 63.9266 152.639 64.1156 152.818C64.3047 152.996 64.448 153.213 64.5349 153.451Z" fill="#F5F5F5"/>
<path d="M58.3006 148.503C59.1987 148.327 60.13 148.369 61.006 148.625C61.3945 148.811 61.6627 149.366 61.4268 149.512C60.6568 149.255 59.8313 149.178 59.022 149.287C58.2151 149.385 57.4327 149.614 56.7097 149.964C56.5246 150.046 56.3119 150.159 56.1269 150.262C56.0677 150.297 56.0016 150.32 55.9327 150.328C55.8638 150.338 55.7936 150.334 55.7264 150.317C55.6592 150.3 55.5964 150.27 55.5421 150.23C55.4876 150.189 55.4427 150.138 55.4101 150.08C55.3523 149.982 55.3373 149.867 55.3684 149.758C55.3994 149.65 55.474 149.558 55.5765 149.5C56.3982 148.989 57.3269 148.649 58.3006 148.503Z" fill="#F5F5F5"/>
<path d="M88.9759 147.727C89.1743 148.247 89.1528 148.82 88.9158 149.326C88.6892 149.798 86.141 151.223 82.603 151.059C79.9937 150.941 77.4657 150.171 75.2821 148.827C73.927 148.026 72.5304 147.896 70.7868 147.839C69.0433 147.783 67.087 147.007 66.6847 146.254C66.2823 145.5 66.6847 144.179 66.6847 144.179L88.9759 147.727Z" fill="#263238"/>
<path d="M74.6304 137.891L75.5553 137.562C75.7141 137.484 75.8979 137.461 76.0733 137.498C76.2999 137.571 76.3924 137.818 76.4571 138.034C76.5472 138.52 76.6866 138.996 76.8733 139.456C77.1426 139.829 77.4847 140.15 77.8815 140.405C78.7681 141.043 79.7228 141.593 80.7304 142.047C81.8912 142.601 83.0427 143.026 84.2221 143.502C85.4014 143.979 87.0524 144.265 88.0097 144.841C89.3971 145.708 89.6377 147.874 88.0837 148.763C86.7471 149.534 83.2046 150.413 79.4447 149.494C77.3959 148.997 75.0882 147.004 72.4105 146.861C70.7086 146.774 67.8227 146.384 66.7035 145.196C66.2874 144.668 66.7867 142.956 67.1984 141.479C67.6609 139.872 67.7719 137.359 68.3407 137.488C68.3916 138.022 68.8911 138.32 69.2009 138.762C69.4469 139.167 69.6603 139.589 69.8391 140.023C70.0472 140.457 69.9825 140.869 70.4126 141.106C70.623 141.237 70.8739 141.297 71.1254 141.278C71.3769 141.26 71.6144 141.163 71.8 141.003C72.2903 140.509 71.9711 139.664 72.3226 139.079C72.6146 138.707 73.0317 138.438 73.5065 138.316L74.6304 137.891Z" fill="#455A64"/>
<path d="M79.102 141.211C78.9746 140.993 78.791 140.81 78.5678 140.677C78.3448 140.544 78.0895 140.465 77.8256 140.448C77.0486 140.332 75.6936 140.882 74.8612 141.566C74.7819 141.629 74.7203 141.71 74.6818 141.8C74.6433 141.89 74.6291 141.988 74.6406 142.084C74.652 142.181 74.6886 142.274 74.7472 142.354C74.8059 142.435 74.8847 142.5 74.9767 142.545C75.0924 142.601 75.2237 142.623 75.3528 142.607C75.4819 142.591 75.6025 142.537 75.6982 142.454C76.6162 141.64 77.8377 141.194 79.102 141.211Z" fill="#F5F5F5"/>
<path d="M81.5257 142.419C81.5257 142.225 81.0215 141.682 80.0226 141.731C80.0226 141.731 78.0016 141.826 76.7852 142.944C76.7106 143.005 76.6529 143.084 76.6171 143.171C76.5811 143.258 76.5681 143.352 76.5789 143.445C76.5898 143.538 76.6243 143.627 76.6795 143.705C76.7347 143.782 76.8091 143.847 76.8963 143.892C77.0078 143.947 77.1343 143.967 77.2586 143.951C77.3828 143.934 77.4987 143.882 77.59 143.801C78.0942 143.31 78.7094 142.931 79.3905 142.692C80.0715 142.453 80.8011 142.36 81.5257 142.419Z" fill="#F5F5F5"/>
<path d="M84.2036 143.503C84.006 143.301 83.764 143.141 83.4942 143.034C83.2245 142.927 82.9332 142.876 82.6404 142.884C81.494 142.973 80.4073 143.4 79.5372 144.105C79.4623 144.167 79.4043 144.244 79.368 144.331C79.3317 144.418 79.3182 144.511 79.3286 144.604C79.339 144.697 79.3731 144.786 79.4279 144.863C79.4827 144.941 79.5567 145.005 79.6435 145.051C79.7553 145.106 79.8823 145.126 80.0074 145.111C80.1324 145.095 80.2493 145.044 80.3418 144.964C80.8189 144.454 81.4167 144.057 82.0874 143.803C82.758 143.55 83.4829 143.447 84.2036 143.503Z" fill="#F5F5F5"/>
<path d="M49.6154 62.5059C48.2279 75.0061 51.6226 105.994 51.6226 105.994C51.3636 107.545 50.6097 109.743 50.6329 115.093C50.6652 123.26 52.6677 140.748 52.6677 140.748C52.6677 140.748 56.5571 141.917 60.4743 140.687C60.4743 140.687 62.9532 118.264 64.0353 110.791C64.7891 105.591 65.1037 100.037 65.1037 100.037L65.6217 105.093C65.1526 108.45 65.0612 111.844 65.3487 115.219C65.6818 118.953 67.8924 134.253 67.8924 134.253C70.5561 134.985 73.3774 135.054 76.0781 134.453C76.0781 134.453 78.0067 108.152 78.3396 104.737C78.7143 100.839 78.8576 63.1428 78.8576 63.1428L49.6154 62.5059Z" fill="#455A64"/>
<path d="M65.0859 100.062L66.8295 77.908C68.4836 77.6348 70.0612 77.0491 71.466 76.1865C72.8709 75.324 74.0737 74.2026 75.0014 72.8906C75.0014 72.8906 74.1967 76.8769 68.4712 79.2816L65.923 99.8496L65.6039 105.109L65.0859 100.062Z" fill="#37474F"/>
<path d="M90.6506 71.6865V71.6216C90.7156 70.6199 90.6504 69.6145 90.4563 68.6276C90.2806 67.904 89.3372 67.2541 88.8053 66.7255C86.2061 64.1475 82.3029 61.0928 79.3754 58.3111C76.5498 55.6465 76.9151 51.9246 76.6376 47.2711C76.1382 38.9869 75.7774 35.2086 75.7774 35.2086L74.5889 27.0586C79.2784 27.4918 81.4658 29.8142 81.9006 31.2701C83.4822 36.5648 85.7946 51.8726 85.7946 51.8726C86.886 53.4021 87.0988 53.5017 89.5684 57.0503C90.8818 58.9394 92.2969 60.7592 93.7307 62.5747C94.0498 62.9819 94.3874 63.3763 94.688 63.7965C94.9886 64.2168 95.1504 64.6977 95.4649 65.131C96.0877 66.0679 96.9113 66.8735 97.8836 67.4967C98.6745 68.0037 99.5671 68.3893 100.238 69.0305C100.731 69.5451 101.194 70.0846 101.625 70.6467C102.097 71.1201 102.651 71.5155 103.262 71.8166C103.041 72.1046 102.734 72.3259 102.38 72.4536C102.025 72.5812 101.64 72.6098 101.269 72.5358C100.52 72.4275 99.9186 71.7082 99.2757 71.3356C99.6364 72.4188 99.8122 75.2351 99.4838 75.7594C98.989 76.548 97.3888 77.4623 96.0107 77.9822C95.0956 78.3051 94.0814 78.2755 93.1896 77.8999C92.0241 77.4275 91.6032 76.2187 91.2703 75.0662C90.8911 73.9735 90.6823 72.8352 90.6506 71.6865Z" fill="#FFADAD"/>
<path d="M74.5889 26.7559C77.5533 27.3624 79.3338 27.6224 81.3225 29.6545C83.3111 31.6866 84.014 38.7751 84.4673 41.7214C84.9205 44.6676 85.3922 47.5837 85.3922 47.5837C85.3922 47.5837 82.2012 50.6166 74.8663 49.0959L74.5889 26.7559Z" fill="#455A64"/>
<path d="M88.2961 65.9935C88.4246 65.7636 88.6152 65.5694 88.8489 65.4302C89.0827 65.2911 89.3513 65.2119 89.628 65.2005C90.184 65.1847 90.7336 65.3153 91.2143 65.5775C91.313 65.4639 91.4408 65.3756 91.5859 65.3209C91.7309 65.2661 91.8884 65.2467 92.0436 65.2645C92.1988 65.2822 92.3467 65.3365 92.4734 65.4223C92.6001 65.5081 92.7015 65.6226 92.7682 65.7552C92.8922 65.5005 93.1126 65.2981 93.3867 65.1869C93.6607 65.0757 93.9692 65.0636 94.2523 65.1531C94.5353 65.2425 94.7728 65.4272 94.919 65.6712C95.0652 65.9153 95.1095 66.2015 95.0436 66.4744C95.1665 66.4632 95.2904 66.4828 95.4027 66.5312C95.5149 66.5795 95.6114 66.6549 95.6824 66.7496C95.7534 66.8442 95.7963 66.9549 95.8068 67.0702C95.8172 67.1856 95.7949 67.3014 95.742 67.406C96.0433 67.3981 96.339 67.4823 96.5847 67.6461C96.8303 67.8098 97.0124 68.044 97.1033 68.3132C97.1942 68.5825 97.189 68.8721 97.0886 69.1384C96.9882 69.4046 96.7979 69.633 96.5466 69.789C96.2281 69.9327 95.874 69.9925 95.522 69.962C95.17 69.9315 94.8336 69.8118 94.5487 69.6157C93.9838 69.2195 93.47 68.7628 93.0179 68.2551C92.5613 67.7457 91.942 67.3871 91.2512 67.2326C90.4651 67.1156 89.6835 67.4536 88.902 67.3323C88.2776 67.237 88.0509 66.4874 88.2961 65.9935Z" fill="#FAFAFA"/>
<path d="M97.4528 69.8193C95.8526 67.2456 92.8281 65.0272 89.9977 66.4527C89.859 66.5221 88.9016 66.977 88.5687 67.146C87.024 67.9215 86.1407 70.5516 87.9119 73.3982C89.452 75.8679 92.4025 77.6313 94.9138 76.4312C95.1049 76.338 95.2889 76.2323 95.4641 76.1148C95.7594 76.049 96.045 75.95 96.315 75.8202C98.8264 74.6028 98.8402 72.0463 97.4528 69.8193Z" fill="#D0AD6B"/>
<path d="M89.9981 66.4526C88.4535 67.2281 87.5424 69.9405 89.3183 72.7915C90.8537 75.2569 93.8043 77.0247 96.3155 75.8245C98.8267 74.6243 98.8407 72.0592 97.4532 69.8322C95.8623 67.2455 92.8331 65.027 89.9981 66.4526Z" fill="#D0AD6B"/>
<path opacity="0.5" d="M89.9981 66.4526C88.4535 67.2281 87.5424 69.9405 89.3183 72.7915C90.8537 75.2569 93.8043 77.0247 96.3155 75.8245C98.8267 74.6243 98.8407 72.0592 97.4532 69.8322C95.8623 67.2455 92.8331 65.027 89.9981 66.4526Z" fill="white"/>
<path d="M84.9979 72.4919C84.5579 71.319 84.5958 70.0352 85.1043 68.887C85.2945 68.4849 85.5904 68.1345 85.9645 67.8688C86.1513 67.7363 86.3648 67.6406 86.5921 67.5878C86.8194 67.5349 87.0559 67.5258 87.2871 67.5611C87.5186 67.5994 87.734 67.6976 87.9089 67.8446C88.0838 67.9916 88.2113 68.1816 88.2768 68.3931C88.4378 68.2554 88.6331 68.1578 88.8449 68.1093C89.0566 68.0609 89.2779 68.0631 89.4885 68.1158C89.8307 68.1981 90.4597 68.549 90.1082 68.9823C90.3273 68.7261 90.6374 68.5521 90.982 68.4921C91.3265 68.4321 91.6826 68.4901 91.9852 68.6556C92.2879 68.821 92.5171 69.0828 92.631 69.3933C92.7449 69.7038 92.7359 70.0423 92.6056 70.3472C92.7367 70.2844 92.8802 70.2477 93.0272 70.2392C93.1742 70.2307 93.3215 70.2506 93.4598 70.2977C93.5982 70.3448 93.7248 70.4181 93.8317 70.5131C93.9384 70.608 94.0233 70.7225 94.0808 70.8494C94.1384 70.9764 94.1675 71.113 94.1663 71.251C94.1651 71.389 94.1335 71.5252 94.0737 71.6512C94.0138 71.7772 93.9269 71.8904 93.8183 71.9836C93.7097 72.0768 93.5819 72.148 93.4427 72.1929C93.7261 72.1351 94.0223 72.1767 94.2751 72.31C94.402 72.3562 94.5159 72.4291 94.608 72.523C94.7002 72.6169 94.7683 72.7292 94.807 72.8516C94.8438 73.0341 94.8212 73.2227 94.7423 73.3931C94.6639 73.5633 94.5629 73.7234 94.4417 73.8697C94.5216 73.7582 94.6306 73.6677 94.7586 73.607C94.8866 73.5463 95.029 73.5174 95.1724 73.5231C95.3177 73.5322 95.458 73.5769 95.579 73.653C95.7 73.7291 95.7974 73.8338 95.8615 73.9564C95.8509 73.8055 95.8926 73.6554 95.9799 73.5283C96.0673 73.4011 96.196 73.3036 96.347 73.2502C96.5083 73.1989 96.681 73.187 96.8485 73.2158C97.0161 73.2447 97.173 73.3132 97.3043 73.4148C97.4281 73.5215 97.5264 73.6516 97.5926 73.7965C97.6587 73.9414 97.6914 74.0978 97.6882 74.2554C97.6714 74.6365 97.5475 75.0066 97.329 75.3283C97.1105 75.6502 96.8053 75.9123 96.4441 76.0881C95.7176 76.4333 94.9183 76.6227 94.104 76.6428C92.2853 76.8295 90.4451 76.6159 88.73 76.0188C87.8761 75.7134 87.1014 75.2408 86.4579 74.6326C85.8143 74.0244 85.3166 73.2946 84.9979 72.4919Z" fill="#FAFAFA"/>
<path d="M54.4332 26.3695C54.4332 26.3695 53.573 27.21 52.2411 30.074C50.4069 33.8423 49.4274 37.9261 49.3644 42.0672C49.2951 48.7312 49.2627 50.4556 49.2627 54.0648V67.1109C53.7025 70.3952 72.7795 72.7046 79.5224 66.422C79.5224 66.422 79.1246 63.5147 78.6668 54.1558C79.5918 48.874 80.4104 42.7995 80.6323 39.1123C81.0208 32.691 80.1699 28.7135 76.1971 27.0887C74.637 26.5671 73.0486 26.1231 71.4384 25.7585C71.4384 25.7585 68.8855 24.9829 64.2422 25.1779C60.9473 25.3644 57.6699 25.7625 54.4332 26.3695Z" fill="#D0AD6B"/>
<path d="M68.4969 3.66104C68.4969 3.66104 66.7072 2.83781 64.9266 4.41496C63.3728 5.79279 63.4883 9.20705 63.5392 12.76C63.5193 14.9975 63.8053 17.2283 64.3901 19.3978C64.5928 20.0471 65.055 20.5982 65.6804 20.936L66.5777 16.9282L67.1234 14.1205C67.1234 14.1205 69.1906 13.9991 70.3607 10.156C71.1331 7.60824 70.9666 6.47304 70.9666 6.47304L68.4969 3.66104Z" fill="#455A64"/>
<path d="M70.1578 8.77415C69.7918 10.2473 69.9004 11.7891 70.4697 13.2044C71.0391 14.6199 72.0435 15.8453 73.3563 16.7258C74.669 17.6062 76.2309 18.1023 77.8445 18.1511C79.4581 18.2 81.051 17.7994 82.4216 17.0001C83.7922 16.2007 84.879 15.0386 85.5446 13.6606C86.2103 12.2826 86.4247 10.7506 86.161 9.25838C85.8973 7.76616 85.1672 6.38072 84.0629 5.27727C82.9588 4.17381 81.5301 3.40191 79.9577 3.05916C78.9136 2.83102 77.8318 2.7979 76.7741 2.9617C75.7165 3.12549 74.7035 3.48299 73.7934 4.01375C72.8833 4.54451 72.0937 5.23813 71.4699 6.05496C70.8462 6.87179 70.4002 7.79579 70.1578 8.77415Z" fill="#455A64"/>
<path d="M67.3365 13.679C66.3653 13.6183 66.2728 12.4701 65.8195 11.7509C65.3663 11.0316 63.6043 9.80105 62.1475 11.5169C60.6907 13.2327 61.389 15.7544 62.5453 16.8679C62.9031 17.2334 63.378 17.4801 63.8985 17.5708C64.419 17.6615 64.9569 17.5911 65.4311 17.3705L64.187 25.9452C66.6243 30.5813 75.9292 31.6298 73.4365 26.7164L73.8157 24.9443C74.9812 25.4004 76.2125 25.6925 77.4693 25.8109C79.4949 25.9581 81.0858 24.7796 82.168 22.9252C83.9116 19.9528 84.8874 15.1261 85.1418 8.65721C83.352 6.58613 76.2345 4.75768 70.9623 6.46481C70.2685 10.1477 69.0384 12.4094 68.6222 12.8817C68.2059 13.354 67.711 13.705 67.3365 13.679Z" fill="#FFADAD"/>
<path d="M87.8473 4.09471C87.8369 4.03488 87.8096 3.97878 87.768 3.93228C87.7265 3.88578 87.6725 3.85059 87.6115 3.8304C87.5114 3.81598 87.4091 3.83272 87.3201 3.87806C86.6703 4.16713 85.9958 4.40481 85.3037 4.58864C85.6512 3.88856 85.8521 3.13255 85.8957 2.36158C85.9234 1.8893 86.0483 0.819092 85.4795 0.572121C85.1419 0.429138 84.7626 0.637113 84.4435 0.810426C81.5253 2.36158 78.6579 0.72377 75.7582 0.195167C73.3349 -0.268445 70.2085 0.00885557 68.5668 1.95862C67.8175 2.85118 67.4615 3.88673 68.2708 4.79662C69.0102 5.54307 69.9256 6.11728 70.9439 6.47342C75.5362 8.31487 81.5808 11.2785 86.2055 7.87725C86.8855 7.40948 87.4034 6.76451 87.6947 6.0228C87.9401 5.42208 87.9977 4.76836 87.8612 4.13803L87.8473 4.09471Z" fill="#263238"/>
<path d="M73.7977 24.9444C73.7977 24.9444 70.2089 23.7962 68.3452 22.1237C67.5865 21.4221 67.0501 20.5372 66.7959 19.5674C66.7327 20.4611 66.9498 21.3526 67.4202 22.1323C69.0065 24.6238 73.5387 26.0666 73.5387 26.0666L73.7977 24.9444Z" fill="#FFADAD"/>
<path d="M75.3512 14.416C75.3241 14.5235 75.2747 14.625 75.2058 14.7147C75.1369 14.8044 75.0499 14.8805 74.9497 14.9386C74.8494 14.9967 74.7379 15.0357 74.6215 15.0535C74.505 15.0712 74.386 15.0674 74.2713 15.0421C74.1565 15.0167 74.0482 14.9705 73.9525 14.9059C73.8567 14.8414 73.7755 14.7598 73.7135 14.6658C73.6515 14.5719 73.6098 14.4675 73.5908 14.3585C73.5718 14.2493 73.576 14.1379 73.603 14.0304C73.6301 13.9228 73.6794 13.8213 73.7484 13.7317C73.8172 13.642 73.9043 13.5659 74.0045 13.5078C74.1048 13.4496 74.2163 13.4106 74.3327 13.3928C74.4492 13.375 74.5682 13.3789 74.6829 13.4043C74.7976 13.4296 74.906 13.4758 75.0017 13.5403C75.0974 13.6049 75.1787 13.6865 75.2407 13.7804C75.3027 13.8744 75.3444 13.9789 75.3634 14.0879C75.3824 14.1969 75.3782 14.3084 75.3512 14.416Z" fill="#263238"/>
<path d="M75.1897 11.1181L73.0808 11.6771C73.0073 11.4078 73.0476 11.1224 73.1932 10.8802C73.3388 10.6381 73.5785 10.4579 73.8625 10.3772C74.0016 10.3417 74.1469 10.3328 74.2898 10.351C74.4328 10.3692 74.5702 10.4142 74.6942 10.4834C74.818 10.5526 74.9258 10.6445 75.011 10.7535C75.0961 10.8625 75.1569 10.9866 75.1897 11.1181Z" fill="#263238"/>
<path d="M83.7448 13.7046L82.3574 12.1014C82.464 12.0104 82.5892 11.9409 82.7255 11.8969C82.8619 11.8529 83.0063 11.8354 83.15 11.8456C83.2938 11.8557 83.4338 11.8933 83.5616 11.9558C83.6892 12.0185 83.802 12.1049 83.8928 12.2097C84.0779 12.429 84.1658 12.7066 84.1382 12.9849C84.1108 13.2633 83.9698 13.521 83.7448 13.7046Z" fill="#263238"/>
<path d="M82.6776 15.7672C82.6304 15.9259 82.5345 16.068 82.4018 16.1761C82.2692 16.2842 82.1055 16.3533 81.9313 16.375C81.7571 16.3967 81.5798 16.3699 81.4216 16.2981C81.2634 16.2261 81.1313 16.1123 81.0416 15.9707C80.9519 15.8291 80.9086 15.6658 80.9171 15.5013C80.9254 15.3368 80.9853 15.1783 81.0892 15.0453C81.193 14.9124 81.3362 14.811 81.501 14.7537C81.6658 14.6964 81.8449 14.6857 82.0162 14.723C82.2505 14.7812 82.451 14.9231 82.5747 15.1185C82.6984 15.3137 82.7353 15.5467 82.6776 15.7672Z" fill="#263238"/>
<path d="M78.3065 13.5098L77.6035 18.4795L80.5218 18.4448L78.3065 13.5098Z" fill="#FFADAD"/>
<path d="M74.0337 19.5674L77.6225 20.8152C77.545 21.0407 77.4198 21.2493 77.2544 21.4286C77.0889 21.6078 76.8866 21.7539 76.6596 21.8582C76.4326 21.9626 76.1854 22.023 75.9329 22.0358C75.6803 22.0487 75.4276 22.0138 75.1898 21.933C74.7073 21.7562 74.317 21.4106 74.1012 20.9692C73.8856 20.5278 73.8613 20.0251 74.0337 19.5674Z" fill="#B16668"/>
<path d="M74.3938 20.1911C74.242 20.1574 74.0871 20.1386 73.9313 20.1348C73.9146 20.5194 74.0263 20.8993 74.2509 21.2216C74.4756 21.5439 74.8019 21.7926 75.1846 21.9328C75.3792 21.9975 75.584 22.0312 75.7904 22.0325C75.8533 21.6165 75.7435 21.1936 75.4837 20.8511C75.224 20.5085 74.8339 20.2723 74.3938 20.1911Z" fill="#FFADAD"/>
<path d="M98.2987 70.9026C97.9195 70.335 96.5274 69.3904 95.8707 68.9009C95.214 68.4112 94.9134 69.3082 95.0614 69.9537C95.1723 70.4389 95.954 71.0282 96.6754 71.5958L96.9344 73.329L95.0568 74.9841C95.0568 74.9841 92.4762 75.0101 92.1432 74.7848C91.5744 74.4035 91.2182 73.9832 91.6807 73.4849C92.1432 72.9867 92.5686 72.8047 93.8359 72.861C94.454 72.9115 95.0766 72.8809 95.6857 72.7701C96.3563 72.5404 96.5645 72.1721 96.213 71.7649C95.6302 71.0759 94.4278 71.2362 93.0543 70.8983C91.3339 70.465 90.8112 69.919 89.322 69.4424C88.0312 69.0949 86.7736 68.6471 85.5621 68.1036C84.2117 67.445 65.9579 57.9084 65.9579 57.9084L60.3759 40.014C60.3759 40.014 59.2567 28.402 56.4541 26.0146C49.9332 27.0588 49.0914 31.383 49.2627 36.4133C49.4338 41.4438 53.9613 55.3868 55.9823 59.6763C57.934 63.8228 58.5445 64.1824 61.4535 65.4736C65.7961 67.4017 77.8388 71.5395 80.6414 72.8956C82.1237 73.5491 83.5493 74.3097 84.9055 75.1704C86.2374 76.0976 88.8966 77.9044 89.5996 78.0821C91.3292 78.5153 94.7793 77.5448 95.8661 77.1852C96.953 76.8255 98.8583 74.2865 98.9971 73.8055C99.1358 73.3246 98.6779 71.4702 98.2987 70.9026Z" fill="#FFADAD"/>
<path d="M66.4746 12.3057C66.9509 13.1498 67.2269 14.0727 67.2844 15.0136C67.2613 15.6162 67.186 16.2152 67.0592 16.8052L66.7948 17.8619C66.7948 17.8619 67.1885 20.5959 68.8399 22.0098C70.4911 23.4238 75.5946 26.1282 78.4195 25.7532C81.2444 25.3781 83.2719 21.1815 83.7315 18.8096C83.7315 18.8096 80.4588 16.8727 79.0627 16.7652C77.6664 16.6577 74.3162 16.9266 73.0363 16.821C70.2646 16.5846 69.3499 16.0758 68.154 14.0914C67.0502 12.301 66.4746 12.3057 66.4746 12.3057Z" fill="#D0AD6B"/>
<path opacity="0.7" d="M66.7314 12.4561C67.1839 13.2943 67.4421 14.2128 67.4889 15.1512C67.4609 15.7525 67.3826 16.3508 67.2545 16.9406L66.9891 17.997C66.9891 17.997 67.3443 20.7216 68.927 22.1188C70.5097 23.516 75.417 26.1725 78.1506 25.7753C81.3127 25.7753 83.372 21.2974 83.8383 18.927C83.8383 18.927 80.2043 16.8983 78.8559 16.8024C77.5076 16.7066 74.2672 17.0023 73.0311 16.9075C70.3545 16.6942 69.4752 16.194 68.3379 14.224C67.2878 12.4467 66.7314 12.4561 66.7314 12.4561Z" fill="white"/>
<path d="M83.3335 19.3999L83.8381 18.9266C83.8381 18.9266 79.9458 16.7559 78.5974 16.66C77.249 16.5643 74.0086 16.8599 72.7726 16.7651C70.096 16.5519 69.3191 15.6916 68.1818 13.7216C67.2743 11.4689 64.6465 10.8828 64.6465 10.8828C66.1616 11.8289 66.1616 13.2484 67.1717 14.1947C67.1438 14.796 67.124 16.2084 66.9959 16.7982L66.7305 17.8546C66.8257 18.6941 67.0748 19.5119 67.4667 20.272C67.2599 19.4961 67.0606 18.7441 67.5411 17.0147C67.8034 16.1195 67.8067 15.1749 67.5507 14.278C67.8616 15.2735 68.5793 16.1137 69.5479 16.616C71.6666 17.7395 73.6555 17.3541 76.9931 17.2316C79.531 17.134 80.8838 18.0155 83.3335 19.3999Z" fill="white"/>
<path d="M58.2262 25.7588C56.3763 25.8455 53.6014 26.0404 51.4509 27.9252C49.3004 29.81 48.9767 33.2893 49.2912 36.8725C49.5271 39.6238 51.6636 50.7375 51.6636 50.7375C51.6636 50.7375 57.8793 52.007 62.9897 47.7479C62.911 47.5615 60.5108 35.4903 60.5108 35.4903C60.5108 35.4903 60.2888 27.089 58.2262 25.7588Z" fill="#455A64"/>
<path d="M145.143 159.563V160.24L146.396 160.92V160.24L145.143 159.563Z" fill="#37474F"/>
<path d="M147.654 159.563V160.24L146.396 160.92V160.24L147.654 159.563Z" fill="#455A64"/>
<path d="M147.654 147.346V159.565L146.396 160.241V148.026L147.654 147.346Z" fill="#37474F"/>
<path d="M146.396 160.241L145.143 159.565V147.346L146.396 148.026V160.241Z" fill="#263238"/>
<path d="M111.262 177.893V178.568L112.515 179.249V178.568L111.262 177.893Z" fill="#37474F"/>
<path d="M113.774 177.893V178.568L112.517 179.249V178.568L113.774 177.893Z" fill="#455A64"/>
<path d="M113.774 165.672V177.891L112.517 178.567V166.349L113.774 165.672Z" fill="#37474F"/>
<path d="M112.515 178.567L111.262 177.891V165.672L112.515 166.349V178.567Z" fill="#263238"/>
<path d="M84.9102 163.638V164.313L86.1635 164.994V164.313L84.9102 163.638Z" fill="#37474F"/>
<path d="M87.421 163.638V164.313L86.1631 164.994V164.313L87.421 163.638Z" fill="#455A64"/>
<path d="M87.421 151.418V163.636L86.1631 164.313V152.098L87.421 151.418Z" fill="#455A64"/>
<path d="M86.1635 164.313L84.9102 163.636V151.418L86.1635 152.098V164.313Z" fill="#263238"/>
<path d="M106.244 119.517L150.16 95.7598V147.347L106.244 171.104V119.517Z" fill="#455A64"/>
<path d="M106.243 119.517L81.1455 105.941V157.528L106.243 171.103V119.517Z" fill="#37474F"/>
<path d="M103.733 124.936L157.69 95.7587L125.063 78.1113L71.1055 107.289L103.733 124.936Z" fill="#D0AD6B"/>
<path opacity="0.6" d="M103.733 124.936L157.69 95.7587L125.063 78.1113L71.1055 107.289L103.733 124.936Z" fill="white"/>
<path opacity="0.1" d="M121.65 109.074C120.457 109.72 120.457 110.768 121.65 111.414C122.319 111.73 123.059 111.894 123.809 111.894C124.56 111.894 125.299 111.73 125.969 111.414C127.162 110.768 127.162 109.72 125.969 109.074C125.3 108.755 124.56 108.59 123.809 108.59C123.059 108.59 122.318 108.755 121.65 109.074Z" fill="black"/>
<path d="M71.1055 107.289V108.645L103.733 126.293V124.936L71.1055 107.289Z" fill="#D0AD6B"/>
<path opacity="0.5" d="M71.1055 107.289V108.645L103.733 126.293V124.936L71.1055 107.289Z" fill="white"/>
<path opacity="0.15" d="M71.1055 107.289V108.645L103.733 126.293V124.936L71.1055 107.289Z" fill="black"/>
<path d="M103.733 126.293L157.691 97.1206V95.7598L103.733 124.937V126.293Z" fill="#D0AD6B"/>
<path opacity="0.5" d="M103.733 126.293L157.691 97.1206V95.7598L103.733 124.937V126.293Z" fill="white"/>
<path opacity="0.05" d="M103.733 126.293L157.691 97.1206V95.7598L103.733 124.937V126.293Z" fill="black"/>
<path opacity="0.1" d="M107.498 109.776C114.66 109.776 120.466 106.635 120.466 102.76C120.466 98.887 114.66 95.7461 107.498 95.7461C100.336 95.7461 94.5303 98.887 94.5303 102.76C94.5303 106.635 100.336 109.776 107.498 109.776Z" fill="black"/>
<path d="M116.095 103.914C117.02 103.047 119.601 100.638 125.053 96.9121H112.048C109.065 96.1152 105.903 96.1152 102.919 96.9121H89.9424C95.3949 100.638 97.9848 103.064 98.8958 103.914L98.9699 103.983L99.1225 104.122C100.829 105.621 103.941 106.622 107.498 106.622C111.054 106.622 114.163 105.621 115.874 104.122C115.915 104.083 115.966 104.04 116.021 103.983L116.095 103.914Z" fill="#E0E0E0"/>
<path d="M107.498 101.47C119.735 101.47 129.655 96.2363 129.655 89.7797C129.655 83.3236 119.735 78.0898 107.498 78.0898C95.2609 78.0898 85.3408 83.3236 85.3408 89.7797C85.3408 96.2363 95.2609 101.47 107.498 101.47Z" fill="#FAFAFA"/>
<path d="M107.498 99.7842C118.736 99.7842 127.846 95.1367 127.846 89.4029C127.846 83.6693 118.736 79.0215 107.498 79.0215C96.2589 79.0215 87.1484 83.6693 87.1484 89.4029C87.1484 95.1367 96.2589 99.7842 107.498 99.7842Z" fill="#EBEBEB"/>
<path d="M107.497 99.7847C110.334 99.7941 113.16 99.4809 115.915 98.8525C114.218 97.3317 111.082 96.3135 107.497 96.3135C103.914 96.3135 100.778 97.3317 99.0762 98.8525C101.833 99.4818 104.661 99.7941 107.497 99.7847Z" fill="#E0E0E0"/>
<path d="M122.555 93.0468L113.773 88.2937L116.279 86.9375L125.062 91.6862L122.555 93.0468Z" fill="#D0AD6B"/>
<path opacity="0.8" d="M122.555 93.0468L113.773 88.2937L116.279 86.9375L125.062 91.6862L122.555 93.0468Z" fill="white"/>
<path opacity="0.05" d="M122.555 93.0468L113.773 88.2937L116.279 86.9375L125.062 91.6862L122.555 93.0468Z" fill="black"/>
<path opacity="0.05" d="M122.555 93.0461L125.062 91.6856L123.481 90.832L120.975 92.1882L122.555 93.0461Z" fill="black"/>
<path d="M113.774 88.2937L110.004 88.9739L112.515 87.6177L116.28 86.9375L113.774 88.2937Z" fill="#D0AD6B"/>
<path opacity="0.7" d="M113.774 88.2937L110.004 88.9739L112.515 87.6177L116.28 86.9375L113.774 88.2937Z" fill="white"/>
<path opacity="0.05" d="M113.774 88.2937L110.004 88.9739L112.515 87.6177L116.28 86.9375L113.774 88.2937Z" fill="black"/>
<path d="M110.004 90.3304L113.774 89.6545L122.555 94.4032V93.047L113.774 88.2939L110.004 88.9742V90.3304Z" fill="#D0AD6B"/>
<path opacity="0.7" d="M110.004 90.3304L113.774 89.6545L122.555 94.4032V93.047L113.774 88.2939L110.004 88.9742V90.3304Z" fill="white"/>
<path opacity="0.1" d="M110.004 90.3304L113.774 89.6545L122.555 94.4032V93.047L113.774 88.2939L110.004 88.9742V90.3304Z" fill="black"/>
<path opacity="0.1" d="M120.975 93.549L122.555 94.4025V93.0464L120.975 92.1885V93.549Z" fill="black"/>
<path d="M125.863 110.053V87.4834H121.761V110.053C121.777 110.222 121.842 110.384 121.948 110.522C122.054 110.66 122.196 110.769 122.362 110.837C122.811 111.051 123.308 111.162 123.812 111.162C124.315 111.162 124.812 111.051 125.262 110.837C125.426 110.768 125.569 110.659 125.675 110.521C125.781 110.384 125.846 110.222 125.863 110.053Z" fill="#D0AD6B"/>
<path opacity="0.8" d="M125.863 110.053V87.4834H121.761V110.053C121.777 110.222 121.842 110.384 121.948 110.522C122.054 110.66 122.196 110.769 122.362 110.837C122.811 111.051 123.308 111.162 123.812 111.162C124.315 111.162 124.812 111.051 125.262 110.837C125.426 110.768 125.569 110.659 125.675 110.521C125.781 110.384 125.846 110.222 125.863 110.053Z" fill="white"/>
<path opacity="0.03" d="M125.863 110.053V87.4834H121.761V110.053C121.777 110.222 121.842 110.384 121.948 110.522C122.054 110.66 122.196 110.769 122.362 110.837C122.811 111.051 123.308 111.162 123.812 111.162C124.315 111.162 124.812 111.051 125.262 110.837C125.426 110.768 125.569 110.659 125.675 110.521C125.781 110.384 125.846 110.222 125.863 110.053Z" fill="black"/>
<path d="M124.424 111.114C124.717 111.07 125 110.979 125.26 110.846C125.426 110.776 125.568 110.667 125.674 110.529C125.779 110.392 125.844 110.23 125.862 110.062V87.4834H124.424V111.114Z" fill="#D0AD6B"/>
<path opacity="0.8" d="M124.424 111.114C124.717 111.07 125 110.979 125.26 110.846C125.426 110.776 125.568 110.667 125.674 110.529C125.779 110.392 125.844 110.23 125.862 110.062V87.4834H124.424V111.114Z" fill="white"/>
<path opacity="0.1" d="M124.424 111.114C124.717 111.07 125 110.979 125.26 110.846C125.426 110.776 125.568 110.667 125.674 110.529C125.779 110.392 125.844 110.23 125.862 110.062V87.4834H124.424V111.114Z" fill="black"/>
<path d="M122.362 88.2673C122.81 88.4809 123.307 88.5922 123.811 88.5922C124.315 88.5922 124.811 88.4809 125.261 88.2673C126.061 87.834 126.061 87.1321 125.261 86.6988C124.811 86.4853 124.315 86.374 123.811 86.374C123.307 86.374 122.81 86.4853 122.362 86.6988C121.557 87.1321 121.557 87.834 122.362 88.2673Z" fill="#D0AD6B"/>
<path opacity="0.8" d="M122.362 88.2673C122.81 88.4809 123.307 88.5922 123.811 88.5922C124.315 88.5922 124.811 88.4809 125.261 88.2673C126.061 87.834 126.061 87.1321 125.261 86.6988C124.811 86.4853 124.315 86.374 123.811 86.374C123.307 86.374 122.81 86.4853 122.362 86.6988C121.557 87.1321 121.557 87.834 122.362 88.2673Z" fill="white"/>
<path d="M144.613 27.6716C149.164 26.5164 151.853 22.1235 150.621 17.8599C149.388 13.5962 144.699 11.0763 140.148 12.2315C135.597 13.3868 132.907 17.7796 134.14 22.0433C135.373 26.3069 140.062 28.8268 144.613 27.6716Z" fill="#D0AD6B"/>
<path d="M147.982 14.0299C147.368 13.8082 146.822 13.4498 146.391 12.9857C146.696 13.1157 147.209 12.86 147.87 12.0672C148.407 11.4216 148.902 10.7673 149.257 10.3341L149.406 10.1348L149.817 10.4077L149.673 10.607C149.332 11.0706 148.86 11.7293 148.398 12.4225C147.829 13.263 147.745 13.8047 147.982 14.0299Z" fill="#D0AD6B"/>
<path opacity="0.2" d="M149.633 10.642C149.558 10.6055 149.485 10.565 149.415 10.5207C149.346 10.4734 149.279 10.4227 149.217 10.3691C149.285 10.2824 149.346 10.2 149.402 10.1221L149.813 10.395L149.633 10.642Z" fill="black"/>
<path d="M150.484 10.4991C150.512 10.4599 150.53 10.4156 150.539 10.3692C150.541 10.3592 150.541 10.3488 150.539 10.3388C150.541 10.323 150.541 10.307 150.539 10.2912C150.539 10.2912 150.539 10.2912 150.539 10.2696C150.539 10.2479 150.539 10.2435 150.539 10.2306C150.432 10.0115 150.265 9.82317 150.054 9.68529C149.844 9.54731 149.598 9.46479 149.341 9.44629H149.277H149.226H149.198C149.156 9.47104 149.12 9.5035 149.092 9.54163C149.062 9.57882 149.043 9.62188 149.036 9.66721C148.986 9.84919 149.184 10.1439 149.526 10.3692C149.868 10.5944 150.234 10.6682 150.401 10.5598C150.432 10.5443 150.459 10.5237 150.484 10.4991Z" fill="#D0AD6B"/>
<path opacity="0.3" d="M150.271 10.2217C150.192 10.3256 149.939 10.2866 149.702 10.135C149.467 9.98333 149.337 9.76672 149.416 9.66271C149.494 9.55881 149.582 9.58909 149.721 9.62808C149.559 9.62808 149.494 9.74505 149.596 9.89239C149.718 10.0317 149.877 10.1366 150.059 10.1957C150.174 10.2217 150.258 10.1957 150.276 10.1221C150.282 10.1381 150.285 10.1552 150.284 10.1723C150.283 10.1894 150.279 10.2062 150.271 10.2217Z" fill="black"/>
<path d="M144.948 12.3745C144.294 12.3895 143.643 12.2713 143.042 12.0279C143.375 12.0279 143.653 11.9845 143.888 11.118C144.082 10.4117 144.116 10.3684 144.222 9.87447C144.222 9.79649 144.254 9.72712 144.268 9.66211L144.763 9.75315C144.763 9.81674 144.749 9.88601 144.721 9.96115C144.62 10.4594 144.62 10.5071 144.518 11.2307C144.393 12.1189 144.633 12.2662 144.948 12.3745Z" fill="#D0AD6B"/>
<path opacity="0.2" d="M144.703 10.0477C144.619 10.0438 144.535 10.0336 144.454 10.0175C144.369 10.0023 144.286 9.98207 144.204 9.9568C144.227 9.8528 144.251 9.75315 144.269 9.66211L144.764 9.75315C144.745 9.84409 144.726 9.93948 144.703 10.0477Z" fill="black"/>
<path d="M145.591 9.54121C145.605 9.48708 145.605 9.43068 145.591 9.37657C145.593 9.3651 145.593 9.35338 145.591 9.34191L145.562 9.28992C145.564 9.2813 145.564 9.27254 145.562 9.26392L145.535 9.22926C145.315 9.02903 145.033 8.89868 144.73 8.85664C144.433 8.78879 144.12 8.81155 143.837 8.92162H143.796H143.772L143.727 8.96062L143.704 8.98662C143.666 9.03129 143.641 9.08313 143.629 9.13827C143.62 9.19135 143.62 9.2455 143.629 9.29858C143.671 9.51954 144.041 9.7319 144.527 9.83581C145.012 9.93981 145.451 9.83581 145.571 9.64957C145.584 9.61455 145.591 9.57802 145.591 9.54121Z" fill="#D0AD6B"/>
<path opacity="0.3" d="M145.221 9.33765C145.188 9.48497 144.893 9.55859 144.559 9.49793C144.226 9.4373 143.976 9.26832 144.009 9.11667C144.041 8.96503 144.148 8.9607 144.314 8.94336C144.138 9.00835 144.134 9.173 144.314 9.28133C144.522 9.38322 144.757 9.424 144.989 9.39831C145.128 9.37232 145.216 9.32032 145.188 9.21633C145.202 9.23349 145.212 9.25307 145.218 9.27391C145.223 9.29475 145.224 9.31643 145.221 9.33765Z" fill="black"/>
<path d="M141.304 12.0846C140.802 12.298 140.259 12.4158 139.709 12.4312C139.972 12.3359 140.111 11.9633 139.991 11.283C139.971 11.0735 139.938 10.8652 139.894 10.6591C139.894 10.6042 139.88 10.5523 139.851 10.5031L140.269 10.4121C140.269 10.4598 140.291 10.5118 140.31 10.5724C140.362 10.7766 140.431 10.9766 140.518 11.1704C140.721 11.829 141.026 12.1062 141.304 12.0846Z" fill="#D0AD6B"/>
<path opacity="0.2" d="M140.328 10.6548C140.263 10.6808 140.194 10.7011 140.124 10.7154C140.055 10.7316 139.984 10.7417 139.912 10.7458C139.912 10.6591 139.87 10.5768 139.852 10.5031L140.268 10.4121C140.287 10.4858 140.305 10.5682 140.328 10.6548Z" fill="black"/>
<path d="M140.721 10.0786C140.709 10.0398 140.691 10.0032 140.665 9.97029L140.633 9.94427H140.605C140.393 9.86581 140.161 9.84452 139.936 9.88275C139.712 9.92108 139.503 10.0174 139.333 10.161C139.332 10.1696 139.332 10.1783 139.333 10.1869V10.2259V10.2519C139.324 10.2904 139.324 10.3304 139.333 10.3689C139.343 10.4065 139.36 10.4419 139.384 10.4729C139.476 10.6029 139.787 10.6549 140.133 10.5769C140.48 10.4989 140.73 10.3299 140.753 10.1739C140.749 10.1404 140.738 10.108 140.721 10.0786Z" fill="#D0AD6B"/>
<path opacity="0.3" d="M140.411 10.044C140.434 10.1523 140.267 10.2779 140.027 10.33C139.787 10.3819 139.564 10.33 139.564 10.2303C139.564 10.1307 139.606 10.0917 139.708 10.0353C139.615 10.1263 139.661 10.2346 139.814 10.2562C139.977 10.263 140.137 10.2253 140.277 10.148C140.359 10.0917 140.397 10.0353 140.35 9.97461C140.378 9.99174 140.399 10.0159 140.411 10.044Z" fill="black"/>
<path d="M138.149 13.068C137.702 13.5168 137.144 13.8573 136.526 14.0603C136.767 13.8436 136.706 13.3063 136.17 12.4527C135.735 11.7552 135.291 11.0923 134.968 10.6243C134.916 10.555 134.871 10.49 134.828 10.425L135.249 10.165L135.393 10.3643C135.721 10.828 136.193 11.4692 136.706 12.0975C137.335 12.925 137.839 13.1937 138.149 13.068Z" fill="#D0AD6B"/>
<path opacity="0.2" d="M135.425 10.4251C135.362 10.4772 135.296 10.525 135.226 10.5681C135.156 10.6136 135.082 10.6528 135.004 10.6851L134.828 10.4338L135.249 10.1738C135.305 10.2518 135.365 10.3341 135.425 10.4251Z" fill="black"/>
<path d="M135.718 9.42851C135.682 9.38094 135.637 9.34104 135.583 9.31153H135.547H135.486H135.454H135.403C135.081 9.31086 134.767 9.40648 134.506 9.58449C134.23 9.73931 134.011 9.97098 133.882 10.2474V10.2907C133.882 10.2907 133.882 10.2907 133.882 10.321C133.879 10.3413 133.879 10.3615 133.882 10.3817C133.884 10.3932 133.884 10.4049 133.882 10.4164C133.892 10.4746 133.914 10.5305 133.947 10.5811C133.982 10.6264 134.027 10.666 134.076 10.698C134.279 10.8367 134.738 10.7544 135.172 10.4857C135.606 10.2171 135.87 9.85316 135.814 9.61913C135.798 9.54947 135.765 9.48418 135.718 9.42851Z" fill="#D0AD6B"/>
<path opacity="0.3" d="M135.278 9.53269C135.371 9.66697 135.204 9.92258 134.904 10.1089C134.603 10.2952 134.284 10.3342 134.191 10.2042C134.099 10.0743 134.191 9.98759 134.284 9.85756C134.206 10.0309 134.331 10.1566 134.553 10.1133C134.796 10.0483 135.014 9.9134 135.172 9.72763C135.256 9.61492 135.278 9.51527 135.172 9.45898C135.216 9.47174 135.253 9.49767 135.278 9.53269Z" fill="black"/>
<path d="M135.472 15.3602C135.246 15.9009 134.945 16.411 134.574 16.8767C134.7 16.6037 134.574 16.2787 134.112 15.9841C133.742 15.7458 133.372 15.5509 133.1 15.3905L132.983 15.3299L133.22 14.9355C133.257 14.9576 133.296 14.9778 133.335 14.9962C133.608 15.1348 133.997 15.3168 134.408 15.4858C134.935 15.6722 135.291 15.5855 135.472 15.3602Z" fill="#D0AD6B"/>
<path opacity="0.2" d="M133.418 15.0133C133.386 15.0783 133.353 15.1476 133.312 15.2169C133.274 15.2833 133.23 15.3469 133.182 15.4075L133.002 15.3122L133.237 14.918L133.418 15.0133Z" fill="black"/>
<path d="M133.224 14.3159C133.185 14.2985 133.142 14.2867 133.099 14.2812H133.057H133.011H132.988H132.955C132.758 14.3783 132.597 14.5294 132.493 14.7146C132.371 14.8984 132.316 15.1142 132.336 15.3298C132.336 15.3298 132.336 15.3298 132.336 15.3644C132.336 15.3992 132.336 15.3644 132.336 15.3644C132.334 15.3774 132.334 15.3906 132.336 15.4034C132.36 15.4383 132.394 15.4667 132.433 15.4858C132.471 15.5052 132.514 15.517 132.558 15.5205C132.734 15.5464 132.997 15.3515 133.178 15.0438C133.358 14.7363 133.391 14.4286 133.274 14.3029C133.257 14.3056 133.24 14.3099 133.224 14.3159Z" fill="#D0AD6B"/>
<path opacity="0.3" d="M132.983 14.519C133.089 14.5753 133.075 14.7877 132.951 15C132.826 15.2123 132.641 15.3379 132.535 15.2816C132.428 15.2253 132.447 15.1516 132.47 15.0347C132.47 15.169 132.604 15.208 132.734 15.1127C132.858 14.9933 132.943 14.8429 132.978 14.6793C132.978 14.5797 132.978 14.5104 132.886 14.5061C132.919 14.4991 132.953 14.5038 132.983 14.519Z" fill="black"/>
<path d="M134.084 18.3408C134.183 18.9483 134.127 19.5692 133.918 20.1519C133.886 19.8399 133.4 19.5497 132.36 19.4153C131.508 19.3027 130.685 19.2203 130.098 19.1684L129.844 19.1467L129.89 18.6788H130.14C130.732 18.7221 131.555 18.7741 132.415 18.8001C133.465 18.8477 133.992 18.6441 134.084 18.3408Z" fill="#D0AD6B"/>
<path opacity="0.2" d="M130.204 18.7004C130.211 18.7797 130.211 18.8594 130.204 18.9387C130.196 19.0188 130.182 19.0984 130.163 19.177L129.844 19.1467L129.89 18.6787L130.204 18.7004Z" fill="black"/>
<path d="M129.506 17.7732C129.438 17.7705 129.371 17.7793 129.307 17.7992H129.265L129.205 17.8382H129.177L129.14 17.8728C128.926 18.1333 128.804 18.4497 128.789 18.7784C128.739 19.1065 128.805 19.4408 128.974 19.7316C128.982 19.7477 128.993 19.7623 129.007 19.775L129.029 19.8009L129.08 19.8442H129.117C129.175 19.8765 129.24 19.8958 129.307 19.9005C129.372 19.9064 129.439 19.899 129.501 19.879C129.769 19.8096 130.006 19.385 130.051 18.8521C130.098 18.3191 129.945 17.8642 129.7 17.7558C129.635 17.7505 129.568 17.7563 129.506 17.7732Z" fill="#D0AD6B"/>
<path opacity="0.3" d="M129.303 18.1976C129.488 18.1976 129.613 18.5225 129.58 18.8908C129.548 19.2591 129.368 19.5408 129.178 19.5234C129.067 19.5234 128.974 19.3934 128.929 19.2158C129.035 19.3978 129.234 19.3848 129.345 19.1724C129.443 18.9366 129.464 18.6786 129.404 18.4316C129.354 18.2886 129.28 18.2019 129.16 18.2452C129.179 18.2287 129.201 18.2159 129.226 18.2077C129.251 18.1995 129.277 18.1961 129.303 18.1976Z" fill="black"/>
<path d="M134.114 21.5996C134.437 22.1649 134.661 22.7748 134.779 23.4064C134.627 23.1118 134.196 22.9731 133.479 23.1508C132.896 23.2894 132.342 23.4541 131.944 23.5841L131.777 23.636L131.606 23.1595L131.773 23.1074C132.166 22.9731 132.698 22.7824 133.262 22.5529C133.938 22.2929 134.187 21.9202 134.114 21.5996Z" fill="#D0AD6B"/>
<path opacity="0.2" d="M131.833 23.0859C131.87 23.1597 131.902 23.2333 131.935 23.3156C131.965 23.3948 131.99 23.4759 132.008 23.5583L131.777 23.6319L131.606 23.1597L131.833 23.0859Z" fill="black"/>
<path d="M131.042 22.7263C130.993 22.743 130.95 22.768 130.912 22.8C130.898 22.8125 130.887 22.8272 130.879 22.8433V22.8779C130.823 23.1135 130.836 23.3591 130.918 23.5882C130.999 23.8173 131.146 24.0211 131.342 24.1777H131.374H131.402H131.448H131.494C131.543 24.1881 131.594 24.1881 131.643 24.1777C131.688 24.1643 131.73 24.1404 131.763 24.1085C131.92 23.9915 131.943 23.6405 131.804 23.2722C131.666 22.904 131.383 22.7263 131.184 22.7263C131.138 22.7175 131.088 22.7175 131.042 22.7263Z" fill="#D0AD6B"/>
<path opacity="0.3" d="M131.037 23.077C131.166 23.0336 131.347 23.207 131.444 23.4626C131.541 23.7183 131.509 23.9566 131.379 23.9999C131.25 24.0432 131.199 23.9695 131.112 23.8612C131.241 23.9566 131.37 23.8916 131.374 23.7183C131.366 23.5321 131.298 23.3524 131.18 23.2026C131.101 23.1203 131.028 23.0857 130.958 23.1463C130.966 23.1303 130.976 23.1158 130.99 23.1039C131.003 23.092 131.02 23.0828 131.037 23.077Z" fill="black"/>
<path d="M135.712 24.8281C136.071 25.1492 136.411 25.4891 136.729 25.8463C136.581 25.7163 136.327 25.5907 136.146 25.6816C136.01 25.753 135.881 25.8372 135.762 25.933L135.726 25.9633L135.513 25.7466L135.55 25.7163C135.658 25.6141 135.751 25.4972 135.823 25.3697C135.866 25.2796 135.878 25.1794 135.858 25.0825C135.839 24.9856 135.787 24.8968 135.712 24.8281Z" fill="#D0AD6B"/>
<path opacity="0.2" d="M135.597 25.6719L135.712 25.7759L135.814 25.8886L135.726 25.9622L135.513 25.7456L135.597 25.6719Z" fill="black"/>
<path d="M134.912 25.621C134.883 25.6446 134.861 25.6744 134.847 25.7076C134.845 25.7162 134.845 25.7251 134.847 25.7336C134.844 25.745 134.844 25.7569 134.847 25.7682C134.845 25.7768 134.845 25.7857 134.847 25.7943C134.88 25.9778 134.976 26.1465 135.12 26.2752C135.249 26.4179 135.422 26.5193 135.615 26.5655H135.717H135.74C135.777 26.5561 135.813 26.5382 135.841 26.5135C135.867 26.4885 135.887 26.4591 135.902 26.4269C135.971 26.2969 135.869 26.0412 135.652 25.8246C135.434 25.6079 135.166 25.491 135.023 25.5473C134.978 25.5601 134.939 25.5859 134.912 25.621Z" fill="#D0AD6B"/>
<path opacity="0.3" d="M135.023 25.8629C135.102 25.7935 135.286 25.8629 135.439 26.0145C135.591 26.1662 135.651 26.3438 135.573 26.4131C135.494 26.4825 135.434 26.4435 135.337 26.3914C135.457 26.4218 135.527 26.3395 135.475 26.2138C135.405 26.0874 135.297 25.9823 135.166 25.9105C135.082 25.8759 135.018 25.8715 134.99 25.9365C134.989 25.9228 134.992 25.9091 134.997 25.8964C135.004 25.8836 135.012 25.8723 135.023 25.8629Z" fill="black"/>
<path d="M138.344 26.9287C138.99 27.0344 139.604 27.2662 140.147 27.6089C139.819 27.5396 139.537 27.5353 139.144 28.3238C138.82 28.9694 138.775 28.9998 138.58 29.459C138.547 29.524 138.52 29.5891 138.492 29.6497L138.029 29.4764C138.058 29.4157 138.085 29.3507 138.113 29.2814C138.303 28.8221 138.312 28.7745 138.553 28.1028C138.839 27.2753 138.631 27.0933 138.344 26.9287Z" fill="#D0AD6B"/>
<path opacity="0.2" d="M138.14 29.1992C138.224 29.217 138.306 29.2401 138.386 29.2685C138.465 29.2971 138.54 29.3318 138.612 29.3725L138.492 29.6498L138.029 29.4765C138.062 29.3898 138.104 29.2945 138.14 29.1992Z" fill="black"/>
<path d="M137.17 29.5366C137.148 29.5877 137.137 29.6421 137.137 29.6969C137.137 29.6969 137.137 29.723 137.137 29.7317C137.137 29.7403 137.137 29.7317 137.137 29.7317C137.135 29.7504 137.135 29.7692 137.137 29.788V29.814V29.853C137.308 30.091 137.558 30.2692 137.849 30.3599C138.128 30.4807 138.44 30.5156 138.742 30.4596H138.788H138.816L138.867 30.4336C138.867 30.4336 138.89 30.4336 138.895 30.4336C138.938 30.3963 138.972 30.3506 138.994 30.2997C139.016 30.2487 139.027 30.1939 139.024 30.139C139.024 29.9136 138.714 29.6233 138.251 29.45C137.789 29.2767 137.349 29.2854 137.188 29.45C137.179 29.4781 137.173 29.5072 137.17 29.5366Z" fill="#D0AD6B"/>
<path opacity="0.3" d="M137.484 29.8014C137.549 29.6584 137.855 29.6411 138.169 29.7624C138.483 29.8837 138.696 30.0916 138.631 30.2303C138.567 30.369 138.46 30.3603 138.289 30.3473C138.479 30.3169 138.515 30.1566 138.359 30.0136C138.173 29.879 137.95 29.7977 137.715 29.7797C137.577 29.7797 137.48 29.8187 137.489 29.9227C137.472 29.8842 137.47 29.8409 137.484 29.8014Z" fill="black"/>
<path d="M141.892 27.8258C142.428 27.7069 142.984 27.6877 143.528 27.7695C143.251 27.8172 143.043 28.1551 143.024 28.831C142.997 29.0365 142.986 29.2436 142.992 29.4506C142.992 29.507 142.992 29.5589 142.992 29.611H142.566C142.566 29.5633 142.566 29.507 142.566 29.4506C142.555 29.2439 142.527 29.0382 142.484 28.8354C142.409 28.1768 142.173 27.8562 141.892 27.8258Z" fill="#D0AD6B"/>
<path opacity="0.2" d="M142.571 29.3722C142.642 29.3674 142.713 29.3674 142.783 29.3722C142.854 29.3655 142.926 29.3655 142.997 29.3722C142.997 29.4588 142.997 29.5454 142.997 29.6234H142.571C142.571 29.5454 142.571 29.4631 142.571 29.3722Z" fill="black"/>
<path d="M142.067 29.875C142.069 29.9144 142.08 29.953 142.099 29.9877L142.128 30.018H142.155C142.344 30.1216 142.562 30.1684 142.779 30.1523C142.997 30.1541 143.209 30.0904 143.385 29.9704H143.413C143.423 29.9598 143.431 29.9481 143.437 29.9356V29.9097C143.451 29.8737 143.459 29.8355 143.46 29.797C143.456 29.758 143.445 29.7199 143.427 29.6844C143.362 29.537 143.066 29.4374 142.714 29.4504C142.363 29.4634 142.077 29.5847 142.021 29.7363C142.021 29.7858 142.038 29.8342 142.067 29.875Z" fill="#D0AD6B"/>
<path opacity="0.3" d="M142.358 29.9577C142.358 29.8493 142.547 29.7584 142.788 29.7497C143.028 29.7411 143.25 29.819 143.25 29.9274C143.25 30.0357 143.182 30.0573 143.065 30.0963C143.182 30.0227 143.153 29.91 143.006 29.8624C142.846 29.8157 142.675 29.8157 142.515 29.8624C142.427 29.9014 142.377 29.9491 142.414 30.014C142.401 30.0085 142.39 30.0007 142.38 29.9911C142.371 29.9813 142.362 29.9701 142.358 29.9577Z" fill="black"/>
<path d="M145.248 27.4059C145.756 27.0214 146.353 26.7542 146.991 26.626C146.719 26.8122 146.71 27.3495 147.121 28.2508C147.454 28.9916 147.801 29.6892 148.046 30.1919C148.086 30.2641 148.123 30.3334 148.157 30.3998L147.695 30.6122C147.662 30.5471 147.625 30.4735 147.583 30.3998C147.32 29.9016 146.941 29.217 146.52 28.5194C146.03 27.6398 145.571 27.3192 145.248 27.4059Z" fill="#D0AD6B"/>
<path opacity="0.2" d="M147.576 30.3213C147.648 30.2774 147.722 30.2369 147.797 30.2C147.874 30.1654 147.953 30.1365 148.034 30.1133C148.08 30.2086 148.131 30.2953 148.172 30.3776L147.709 30.5899C147.659 30.5249 147.627 30.4166 147.576 30.3213Z" fill="black"/>
<path d="M147.158 31.2747C147.187 31.3262 147.226 31.3719 147.273 31.4089H147.306L147.361 31.435H147.394H147.445C147.763 31.4566 148.084 31.3982 148.37 31.2657C148.657 31.1332 148.902 30.9314 149.078 30.681C149.079 30.6666 149.079 30.6522 149.078 30.6378C149.08 30.6277 149.08 30.6174 149.078 30.6074C149.082 30.5874 149.082 30.5668 149.078 30.5467C149.082 30.5341 149.082 30.5204 149.078 30.5077C149.077 30.4493 149.062 30.3915 149.036 30.3387C149.009 30.2884 148.971 30.244 148.925 30.2088C148.74 30.0441 148.278 30.0745 147.81 30.2868C147.343 30.4991 147.033 30.8327 147.061 31.0666C147.07 31.1437 147.104 31.2162 147.158 31.2747Z" fill="#D0AD6B"/>
<path opacity="0.3" d="M147.607 31.2228C147.533 31.0798 147.732 30.8415 148.07 30.6942C148.408 30.5468 148.713 30.5425 148.787 30.6942C148.861 30.8458 148.787 30.9108 148.649 31.0235C148.755 30.8632 148.649 30.7245 148.417 30.7419C148.174 30.7806 147.949 30.8861 147.77 31.0451C147.673 31.1534 147.635 31.2445 147.727 31.3137C147.701 31.3085 147.677 31.2976 147.656 31.2818C147.635 31.2659 147.618 31.2457 147.607 31.2228Z" fill="black"/>
<path d="M148.584 25.3776C148.882 24.8693 149.251 24.4002 149.68 23.9824C149.518 24.238 149.583 24.576 149.99 24.9183C150.322 25.1956 150.656 25.4469 150.914 25.6203L151.016 25.6939L150.734 26.0578L150.627 25.9841C150.378 25.8152 150.022 25.5899 149.639 25.3776C149.171 25.1177 148.81 25.1609 148.584 25.3776Z" fill="#D0AD6B"/>
<path opacity="0.2" d="M150.571 25.9411C150.61 25.8762 150.653 25.8139 150.702 25.7549C150.749 25.6931 150.8 25.6338 150.854 25.5771L151.021 25.6942L150.738 26.0582L150.571 25.9411Z" fill="black"/>
<path d="M150.665 26.656C150.7 26.6799 150.741 26.6961 150.785 26.7036H150.826C150.841 26.708 150.857 26.708 150.873 26.7036H150.896H150.932C151.147 26.6264 151.331 26.4887 151.46 26.3094C151.607 26.143 151.691 25.936 151.7 25.7201V25.6855V25.6465V25.6248C151.68 25.5883 151.65 25.5565 151.616 25.5318C151.581 25.5071 151.54 25.49 151.497 25.4818C151.325 25.4341 151.034 25.5988 150.817 25.8761C150.6 26.1534 150.521 26.461 150.618 26.604C150.631 26.6232 150.646 26.6406 150.665 26.656Z" fill="#D0AD6B"/>
<path opacity="0.3" d="M150.932 26.4825C150.835 26.4175 150.877 26.2052 151.029 26.0102C151.182 25.8153 151.386 25.7155 151.492 25.7806C151.598 25.8456 151.56 25.9192 151.519 26.0363C151.519 25.8975 151.413 25.8456 151.274 25.9235C151.132 26.025 151.026 26.1638 150.968 26.3221C150.946 26.4175 150.968 26.4868 151.038 26.5041C151.02 26.5074 151.001 26.5072 150.983 26.5035C150.964 26.4998 150.947 26.4927 150.932 26.4825Z" fill="black"/>
<path d="M150.249 22.8904C150.236 22.2758 150.421 21.672 150.78 21.1572C150.78 21.4736 151.316 21.8765 152.579 22.2664C152.88 22.3618 153.542 22.6304 154.263 22.8254L154.568 22.9077L154.433 23.3627L154.123 23.2847C153.398 23.094 152.616 22.8947 152.403 22.8514C151.108 22.5395 150.433 22.6131 150.249 22.8904Z" fill="#D0AD6B"/>
<path opacity="0.2" d="M154.134 23.2679C154.155 23.1092 154.201 22.9543 154.272 22.8086L154.577 22.8909L154.444 23.3458L154.134 23.2679Z" fill="black"/>
<path d="M154.627 24.2991C154.693 24.3141 154.761 24.3141 154.826 24.2991H154.873L154.937 24.273H154.965L155.016 24.2427C155.282 24.0259 155.467 23.7365 155.548 23.4151C155.657 23.1012 155.657 22.7629 155.548 22.4489C155.541 22.4327 155.533 22.4168 155.525 22.4013C155.526 22.3912 155.526 22.381 155.525 22.3709L155.483 22.3189L155.45 22.2929C155.399 22.2518 155.339 22.2209 155.275 22.202C155.209 22.1892 155.141 22.1892 155.077 22.202C154.803 22.202 154.484 22.6006 154.331 23.1119C154.179 23.6231 154.234 24.0997 154.456 24.2514C154.51 24.2775 154.567 24.2937 154.627 24.2991Z" fill="#D0AD6B"/>
<path opacity="0.3" d="M154.91 23.9222C154.735 23.8746 154.675 23.5496 154.781 23.1943C154.887 22.839 155.119 22.592 155.299 22.6397C155.479 22.6874 155.479 22.8043 155.484 22.9907C155.42 22.7914 155.221 22.7697 155.068 22.9559C154.924 23.171 154.851 23.4215 154.86 23.6753C154.86 23.8225 154.934 23.9222 155.063 23.9006C155.018 23.9259 154.963 23.9336 154.91 23.9222Z" fill="black"/>
<path d="M150.841 19.7665C150.603 19.1613 150.504 18.5164 150.55 17.873C150.651 18.1893 151.155 18.3844 152.112 18.3064C152.894 18.2457 152.815 18.2414 153.352 18.172L153.578 18.1461L153.653 18.6356L153.426 18.666C152.889 18.744 152.964 18.783 152.205 18.9303C151.266 19.1165 150.846 19.4373 150.841 19.7665Z" fill="#D0AD6B"/>
<path opacity="0.2" d="M153.411 18.6747C153.411 18.5967 153.373 18.5144 153.36 18.4277C153.346 18.341 153.36 18.2587 153.337 18.1807L153.577 18.1504L153.651 18.64L153.411 18.6747Z" fill="black"/>
<path d="M154.134 19.1561C154.182 19.1521 154.229 19.1355 154.268 19.1084H154.295L154.328 19.0737C154.327 19.0622 154.327 19.0505 154.328 19.039C154.425 18.8168 154.457 18.5742 154.421 18.3366C154.383 18.0989 154.28 17.8747 154.12 17.6872L154.087 17.6612L154.041 17.6352H154.008C153.96 17.6242 153.909 17.6242 153.861 17.6352C153.813 17.6411 153.768 17.6558 153.727 17.6785C153.551 17.7696 153.458 18.1119 153.519 18.4974C153.579 18.883 153.768 19.1863 153.981 19.2253C154.038 19.2167 154.091 19.1926 154.134 19.1561Z" fill="#D0AD6B"/>
<path opacity="0.3" d="M154.193 18.8263C154.059 18.848 153.916 18.6443 153.874 18.3931C153.832 18.1417 153.906 17.8947 154.045 17.8774C154.183 17.8601 154.216 17.9381 154.276 18.0594C154.17 17.9468 154.031 17.9901 153.989 18.1547C153.963 18.3394 153.993 18.5273 154.077 18.6963C154.138 18.7873 154.206 18.8393 154.285 18.7917C154.26 18.8126 154.227 18.8248 154.193 18.8263Z" fill="black"/>
<path d="M149.971 16.2785C149.682 15.8989 149.416 15.5039 149.176 15.0957C149.296 15.2517 149.522 15.4206 149.721 15.3599C149.87 15.3158 150.012 15.2562 150.146 15.1823H150.188L150.355 15.4293L150.313 15.4553C150.185 15.5341 150.071 15.6322 149.976 15.7456C149.92 15.8245 149.89 15.9168 149.889 16.0114C149.888 16.106 149.916 16.1988 149.971 16.2785Z" fill="#D0AD6B"/>
<path opacity="0.2" d="M150.238 15.4688C150.207 15.4301 150.176 15.3896 150.15 15.3475C150.122 15.3054 150.096 15.2621 150.071 15.2174L150.168 15.1611L150.335 15.4081L150.238 15.4688Z" fill="black"/>
<path opacity="0.3" d="M150.841 15.3825C150.753 15.4344 150.581 15.3348 150.466 15.1615C150.35 14.9881 150.323 14.7975 150.414 14.7282C150.507 14.6588 150.554 14.7282 150.642 14.7888C150.526 14.7369 150.443 14.7888 150.466 14.9405C150.506 15.0784 150.592 15.201 150.71 15.2914C150.785 15.3434 150.85 15.3565 150.886 15.2914C150.889 15.3092 150.886 15.3273 150.878 15.3435C150.87 15.3597 150.857 15.3732 150.841 15.3825Z" fill="black"/>
<path opacity="0.1" d="M147.321 26.4607C145.221 27.7606 138.783 28.1938 135.703 23.1634C132.624 18.1331 137.183 13.5013 139.102 12.5566C137.991 12.9872 136.989 13.633 136.162 14.4517C135.336 15.2704 134.703 16.2434 134.305 17.3072C133.908 18.3709 133.756 19.5012 133.858 20.6241C133.959 21.747 134.312 22.8371 134.895 23.823C135.478 24.8089 136.277 25.6683 137.239 26.3448C138.2 27.0214 139.304 27.4998 140.477 27.7489C141.651 27.998 142.867 28.0119 144.046 27.7899C145.226 27.5679 146.341 27.115 147.321 26.4607Z" fill="black"/>
<path d="M137.265 19.9398C137.342 20.184 137.315 20.4465 137.191 20.6725C137.065 20.8985 136.852 21.0706 136.595 21.153C136.133 21.2267 135.647 20.8063 135.536 20.2128C135.459 19.9685 135.486 19.7061 135.612 19.48C135.736 19.2541 135.949 19.0819 136.207 18.9996C136.682 18.926 137.159 19.3462 137.265 19.9398Z" fill="#D0AD6B"/>
<path opacity="0.15" d="M137.265 19.9398C137.342 20.184 137.315 20.4465 137.191 20.6725C137.065 20.8985 136.852 21.0706 136.595 21.153C136.133 21.2267 135.647 20.8063 135.536 20.2128C135.459 19.9685 135.486 19.7061 135.612 19.48C135.736 19.2541 135.949 19.0819 136.207 18.9996C136.682 18.926 137.159 19.3462 137.265 19.9398Z" fill="black"/>
<path opacity="0.15" d="M135.984 19.3986C136.155 19.1647 136.641 19.3379 136.78 19.8796C136.841 20.0527 136.848 20.2388 136.801 20.4155C136.752 20.5922 136.65 20.7522 136.507 20.8761C136.463 20.896 136.417 20.9076 136.368 20.9103C136.32 20.9129 136.272 20.9067 136.226 20.8917C136.18 20.8769 136.139 20.8536 136.103 20.8234C136.067 20.7932 136.038 20.7567 136.017 20.7158C136.174 20.8328 136.382 20.7894 136.503 20.5512C136.573 20.3937 136.603 20.2225 136.588 20.0521C136.574 19.8816 136.516 19.717 136.419 19.572C136.289 19.3943 136.095 19.3337 135.984 19.3986Z" fill="black"/>
<path d="M147.399 21.5428C147.473 20.9449 147.926 20.503 148.407 20.5549C148.888 20.6069 149.216 21.1355 149.142 21.7335C149.068 22.3314 148.615 22.7733 148.12 22.7256C147.625 22.678 147.325 22.1407 147.399 21.5428Z" fill="#D0AD6B"/>
<path opacity="0.15" d="M147.399 21.5428C147.473 20.9449 147.926 20.503 148.407 20.5549C148.888 20.6069 149.216 21.1355 149.142 21.7335C149.068 22.3314 148.615 22.7733 148.12 22.7256C147.625 22.678 147.325 22.1407 147.399 21.5428Z" fill="black"/>
<path opacity="0.15" d="M148.467 22.396C148.231 22.5736 147.82 22.2834 147.847 21.7287C147.875 21.2955 148.134 20.8925 148.407 20.8621C148.454 20.8547 148.503 20.8561 148.55 20.8662C148.596 20.8763 148.641 20.8951 148.68 20.9212C148.719 20.9473 148.752 20.9804 148.777 21.0187C148.803 21.0569 148.82 21.0994 148.828 21.1438C148.713 20.9922 148.505 20.9791 148.315 21.1784C148.206 21.31 148.132 21.4635 148.097 21.6269C148.064 21.7902 148.072 21.9587 148.121 22.1187C148.171 22.3224 148.324 22.4263 148.467 22.396Z" fill="black"/>
<path d="M142.002 17.4437C141.793 17.5285 141.555 17.5338 141.342 17.4587C141.128 17.3836 140.953 17.2338 140.855 17.0407C140.739 16.6768 141.068 16.2652 141.586 16.1222C141.795 16.0371 142.031 16.0311 142.245 16.1054C142.458 16.1797 142.633 16.3286 142.733 16.5208C142.848 16.8848 142.52 17.3008 142.002 17.4437Z" fill="#D0AD6B"/>
<path opacity="0.15" d="M142.002 17.4437C141.793 17.5285 141.555 17.5338 141.342 17.4587C141.128 17.3836 140.953 17.2338 140.855 17.0407C140.739 16.6768 141.068 16.2652 141.586 16.1222C141.795 16.0371 142.031 16.0311 142.245 16.1054C142.458 16.1797 142.633 16.3286 142.733 16.5208C142.848 16.8848 142.52 17.3008 142.002 17.4437Z" fill="black"/>
<path opacity="0.15" d="M142.354 16.3877C142.581 16.5003 142.479 16.8947 142.007 17.0593C141.859 17.1286 141.691 17.1549 141.526 17.1348C141.362 17.1148 141.207 17.0493 141.082 16.9466C141.061 16.9149 141.044 16.8793 141.037 16.8419C141.03 16.8046 141.03 16.7662 141.039 16.7291C141.047 16.692 141.065 16.6569 141.088 16.6258C141.111 16.5948 141.14 16.5683 141.175 16.548C141.087 16.6823 141.142 16.8383 141.369 16.9076C141.516 16.9481 141.672 16.9547 141.822 16.9268C141.973 16.8989 142.114 16.8373 142.234 16.7473C142.391 16.626 142.423 16.483 142.354 16.3877Z" fill="black"/>
<path d="M141.24 21.9249C141.812 22.1979 142.104 22.7438 141.882 23.1468C141.66 23.5497 141.027 23.6623 140.449 23.3894C139.871 23.1164 139.588 22.5704 139.805 22.1675C140.024 21.7645 140.666 21.6563 141.24 21.9249Z" fill="#D0AD6B"/>
<path opacity="0.15" d="M141.24 21.9249C141.812 22.1979 142.104 22.7438 141.882 23.1468C141.66 23.5497 141.027 23.6623 140.449 23.3894C139.871 23.1164 139.588 22.5704 139.805 22.1675C140.024 21.7645 140.666 21.6563 141.24 21.9249Z" fill="black"/>
<path opacity="0.15" d="M140.014 22.5744C139.917 22.3014 140.351 22.0371 140.897 22.2581C141.332 22.4271 141.637 22.7953 141.595 23.051C141.587 23.0953 141.569 23.1376 141.543 23.1755C141.518 23.2133 141.483 23.2459 141.444 23.2713C141.405 23.2967 141.36 23.3145 141.313 23.3236C141.265 23.3326 141.217 23.3328 141.17 23.324C141.359 23.2763 141.447 23.0986 141.309 22.8647C141.217 22.7173 141.087 22.5929 140.933 22.5024C140.778 22.4119 140.602 22.3578 140.421 22.3448C140.189 22.3361 140.037 22.4357 140.014 22.5744Z" fill="black"/>
<path d="M140.689 15.113C140.432 15.2063 140.146 15.2018 139.894 15.1007C139.64 14.9995 139.439 14.8095 139.334 14.5714C139.223 14.1381 139.639 13.6571 140.259 13.5185C140.879 13.3798 141.485 13.6225 141.595 14.0644C141.706 14.5064 141.318 14.9743 140.689 15.113Z" fill="#D0AD6B"/>
<path opacity="0.15" d="M140.689 15.113C140.432 15.2063 140.146 15.2018 139.894 15.1007C139.64 14.9995 139.439 14.8095 139.334 14.5714C139.223 14.1381 139.639 13.6571 140.259 13.5185C140.879 13.3798 141.485 13.6225 141.595 14.0644C141.706 14.5064 141.318 14.9743 140.689 15.113Z" fill="black"/>
<path opacity="0.15" d="M141.184 13.8789C141.443 14.0306 141.295 14.4942 140.721 14.6545C140.543 14.7264 140.345 14.7474 140.154 14.715C139.962 14.6826 139.785 14.5983 139.644 14.4725C139.595 14.3931 139.582 14.299 139.607 14.2105C139.632 14.122 139.693 14.0464 139.778 14.0002C139.667 14.1563 139.722 14.3469 139.99 14.4336C140.163 14.4892 140.347 14.5052 140.527 14.4803C140.707 14.4554 140.879 14.3904 141.026 14.2906C141.207 14.1649 141.258 13.9959 141.184 13.8789Z" fill="black"/>
<path d="M144.559 21.426C144.702 21.3823 144.855 21.3769 145.002 21.4103C145.148 21.4437 145.282 21.5147 145.387 21.6153C145.493 21.7159 145.565 21.842 145.599 21.9796C145.632 22.1171 145.624 22.2607 145.575 22.394C145.526 22.5273 145.438 22.6453 145.321 22.7344C145.205 22.8235 145.063 22.8805 144.915 22.8988C144.765 22.917 144.614 22.8959 144.477 22.8378C144.339 22.7797 144.222 22.6869 144.138 22.5698C144.035 22.3654 144.022 22.1314 144.1 21.9177C144.179 21.704 144.343 21.5276 144.559 21.426Z" fill="#D0AD6B"/>
<path opacity="0.15" d="M144.559 21.426C144.702 21.3823 144.855 21.3769 145.002 21.4103C145.148 21.4437 145.282 21.5147 145.387 21.6153C145.493 21.7159 145.565 21.842 145.599 21.9796C145.632 22.1171 145.624 22.2607 145.575 22.394C145.526 22.5273 145.438 22.6453 145.321 22.7344C145.205 22.8235 145.063 22.8805 144.915 22.8988C144.765 22.917 144.614 22.8959 144.477 22.8378C144.339 22.7797 144.222 22.6869 144.138 22.5698C144.035 22.3654 144.022 22.1314 144.1 21.9177C144.179 21.704 144.343 21.5276 144.559 21.426Z" fill="black"/>
<path opacity="0.15" d="M144.564 22.5746C144.3 22.5269 144.268 22.1023 144.689 21.799C144.814 21.6893 144.971 21.6158 145.14 21.5874C145.309 21.5589 145.483 21.5768 145.641 21.6387C145.676 21.6639 145.704 21.6954 145.724 21.7312C145.745 21.767 145.759 21.8064 145.762 21.847C145.766 21.8875 145.761 21.9285 145.747 21.9671C145.733 22.0058 145.712 22.0416 145.683 22.072C145.724 21.9117 145.618 21.7731 145.364 21.7687C145.202 21.7742 145.043 21.8165 144.902 21.8919C144.762 21.9675 144.642 22.0738 144.554 22.202C144.448 22.345 144.463 22.501 144.564 22.5746Z" fill="black"/>
<path d="M146.789 18.0901C146.298 17.3925 146.354 16.5476 146.909 16.201C147.464 15.8543 148.325 16.136 148.814 16.8336C149.304 17.5311 149.254 18.376 148.694 18.7227C148.135 19.0693 147.279 18.7833 146.789 18.0901Z" fill="#D0AD6B"/>
<path opacity="0.15" d="M146.789 18.0901C146.298 17.3925 146.354 16.5476 146.909 16.201C147.464 15.8543 148.325 16.136 148.814 16.8336C149.304 17.5311 149.254 18.376 148.694 18.7227C148.135 19.0693 147.279 18.7833 146.789 18.0901Z" fill="black"/>
<path opacity="0.15" d="M148.735 18.0981C148.658 18.4838 147.941 18.5315 147.441 17.9076C147.048 17.4179 146.951 16.7854 147.187 16.5037C147.229 16.4554 147.282 16.4156 147.342 16.3866C147.401 16.3575 147.466 16.3399 147.532 16.3346C147.599 16.3294 147.667 16.3367 147.73 16.356C147.794 16.3754 147.853 16.4065 147.903 16.4473C147.635 16.3867 147.399 16.5427 147.395 16.911C147.396 17.1475 147.459 17.3803 147.578 17.5887C147.697 17.7972 147.87 17.9751 148.079 18.1069C148.352 18.2672 148.611 18.2498 148.735 18.0981Z" fill="black"/>
<path d="M138.182 23.4794C138.245 23.5831 138.276 23.7013 138.271 23.8206C138.266 23.9398 138.225 24.0554 138.155 24.1543C138.083 24.2532 137.984 24.3316 137.868 24.3805C137.752 24.4295 137.623 24.4471 137.497 24.4315C137.371 24.4158 137.252 24.3675 137.153 24.2918C137.055 24.2162 136.981 24.1164 136.94 24.0035C136.898 23.8906 136.891 23.7692 136.919 23.6528C136.948 23.5365 137.01 23.4299 137.1 23.345C137.264 23.2318 137.468 23.1825 137.67 23.2075C137.872 23.2326 138.056 23.3301 138.182 23.4794Z" fill="#D0AD6B"/>
<path opacity="0.15" d="M138.182 23.4794C138.245 23.5831 138.276 23.7013 138.271 23.8206C138.266 23.9398 138.225 24.0554 138.155 24.1543C138.083 24.2532 137.984 24.3316 137.868 24.3805C137.752 24.4295 137.623 24.4471 137.497 24.4315C137.371 24.4158 137.252 24.3675 137.153 24.2918C137.055 24.2162 136.981 24.1164 136.94 24.0035C136.898 23.8906 136.891 23.7692 136.919 23.6528C136.948 23.5365 137.01 23.4299 137.1 23.345C137.264 23.2318 137.468 23.1825 137.67 23.2075C137.872 23.2326 138.056 23.3301 138.182 23.4794Z" fill="black"/>
<path opacity="0.15" d="M137.15 23.6788C137.15 23.4666 137.521 23.3713 137.858 23.6398C137.977 23.7188 138.069 23.8284 138.122 23.9554C138.176 24.0824 138.189 24.2212 138.158 24.3548C138.142 24.3848 138.119 24.4114 138.092 24.4331C138.065 24.4546 138.032 24.4707 137.998 24.4805C137.962 24.4901 137.927 24.4933 137.891 24.4896C137.855 24.4858 137.82 24.4754 137.789 24.4588C137.937 24.4588 138.043 24.3548 138.002 24.1599C137.974 24.032 137.911 23.913 137.82 23.8138C137.73 23.7145 137.614 23.6383 137.484 23.5922C137.426 23.5675 137.361 23.5627 137.3 23.5786C137.239 23.5945 137.187 23.63 137.15 23.6788Z" fill="black"/>
<path d="M142.067 24.8061C142.719 24.858 143.214 25.274 143.168 25.7333C143.121 26.1926 142.562 26.5219 141.91 26.4698C141.258 26.4179 140.768 25.9976 140.809 25.5384C140.85 25.079 141.415 24.7498 142.067 24.8061Z" fill="#D0AD6B"/>
<path opacity="0.15" d="M142.067 24.8061C142.719 24.858 143.214 25.274 143.168 25.7333C143.121 26.1926 142.562 26.5219 141.91 26.4698C141.258 26.4179 140.768 25.9976 140.809 25.5384C140.85 25.079 141.415 24.7498 142.067 24.8061Z" fill="black"/>
<path opacity="0.15" d="M141.183 25.8454C140.984 25.6245 141.285 25.2215 141.891 25.2388C142.354 25.2388 142.816 25.4858 142.871 25.7414C142.884 25.7882 142.887 25.8369 142.879 25.8846C142.871 25.9323 142.852 25.9779 142.825 26.0185C142.796 26.0592 142.76 26.094 142.717 26.1209C142.674 26.1478 142.627 26.1661 142.575 26.1748C142.738 26.0577 142.747 25.8584 142.525 25.6895C142.378 25.5821 142.206 25.5097 142.024 25.4787C141.841 25.4478 141.652 25.4591 141.475 25.5117C141.244 25.5638 141.138 25.7111 141.183 25.8454Z" fill="black"/>
<path d="M145.711 24.4595C145.831 24.344 145.993 24.2754 146.165 24.2674C146.337 24.2594 146.504 24.3125 146.637 24.4162C146.704 24.5629 146.719 24.7264 146.679 24.8819C146.64 25.0374 146.548 25.1768 146.416 25.2792C146.285 25.3816 146.122 25.4415 145.952 25.4499C145.781 25.4584 145.612 25.4149 145.471 25.3261C145.382 25.1807 145.358 25.0088 145.403 24.8469C145.448 24.685 145.559 24.546 145.711 24.4595Z" fill="#D0AD6B"/>
<path opacity="0.15" d="M145.711 24.4595C145.831 24.344 145.993 24.2754 146.165 24.2674C146.337 24.2594 146.504 24.3125 146.637 24.4162C146.704 24.5629 146.719 24.7264 146.679 24.8819C146.64 25.0374 146.548 25.1768 146.416 25.2792C146.285 25.3816 146.122 25.4415 145.952 25.4499C145.781 25.4584 145.612 25.4149 145.471 25.3261C145.382 25.1807 145.358 25.0088 145.403 24.8469C145.448 24.685 145.559 24.546 145.711 24.4595Z" fill="black"/>
<path opacity="0.15" d="M145.809 25.3256C145.61 25.3256 145.555 24.9963 145.837 24.7493C145.92 24.659 146.03 24.5933 146.152 24.5602C146.274 24.5272 146.404 24.5281 146.526 24.5631C146.578 24.5965 146.614 24.648 146.627 24.7065C146.639 24.7649 146.626 24.8255 146.59 24.875C146.59 24.7536 146.516 24.6583 146.332 24.6757C146.213 24.6888 146.101 24.7289 146.003 24.7924C145.905 24.8558 145.827 24.9407 145.772 25.0396C145.702 25.1436 145.726 25.2562 145.809 25.3256Z" fill="black"/>
<path d="M144.342 14.7018C144.251 14.6995 144.162 14.6776 144.081 14.6376C144 14.5977 143.93 14.5408 143.878 14.4715C143.824 14.4022 143.789 14.3222 143.774 14.2379C143.759 14.1537 143.765 14.0673 143.792 13.9855C143.818 13.9038 143.865 13.829 143.927 13.7668C143.99 13.7046 144.067 13.6568 144.153 13.6272C144.237 13.5976 144.329 13.5868 144.42 13.5959C144.511 13.6049 144.598 13.6334 144.675 13.6792C145.073 13.7919 145.327 14.1125 145.234 14.3985C145.157 14.5474 145.02 14.6621 144.854 14.7187C144.687 14.7752 144.504 14.7692 144.342 14.7018Z" fill="#D0AD6B"/>
<path opacity="0.15" d="M144.342 14.7018C144.251 14.6995 144.162 14.6776 144.081 14.6376C144 14.5977 143.93 14.5408 143.878 14.4715C143.824 14.4022 143.789 14.3222 143.774 14.2379C143.759 14.1537 143.765 14.0673 143.792 13.9855C143.818 13.9038 143.865 13.829 143.927 13.7668C143.99 13.7046 144.067 13.6568 144.153 13.6272C144.237 13.5976 144.329 13.5868 144.42 13.5959C144.511 13.6049 144.598 13.6334 144.675 13.6792C145.073 13.7919 145.327 14.1125 145.234 14.3985C145.157 14.5474 145.02 14.6621 144.854 14.7187C144.687 14.7752 144.504 14.7692 144.342 14.7018Z" fill="black"/>
<path opacity="0.15" d="M145.049 14.1596C145.146 14.3242 144.897 14.5365 144.518 14.4543C144.222 14.3893 143.982 14.1856 143.977 14.0209C143.977 13.9912 143.983 13.9617 143.996 13.9343C144.008 13.9069 144.026 13.8822 144.049 13.8616C144.072 13.8409 144.099 13.8249 144.129 13.8143C144.158 13.8037 144.19 13.7988 144.222 13.8C144.102 13.8519 144.069 13.9732 144.185 14.112C144.262 14.1964 144.36 14.2622 144.47 14.3036C144.581 14.3452 144.7 14.3611 144.818 14.3503C144.966 14.3286 145.054 14.2463 145.049 14.1596Z" fill="black"/>
<path d="M139.796 19.06C139.828 19.2234 139.791 19.3919 139.693 19.5301C139.594 19.6683 139.442 19.7654 139.27 19.8009C138.951 19.8009 138.677 19.5105 138.655 19.1206C138.626 18.9597 138.665 18.795 138.762 18.6598C138.859 18.5246 139.007 18.4291 139.177 18.3927C139.491 18.3623 139.764 18.67 139.796 19.06Z" fill="#D0AD6B"/>
<path opacity="0.15" d="M139.796 19.06C139.828 19.2234 139.791 19.3919 139.693 19.5301C139.594 19.6683 139.442 19.7654 139.27 19.8009C138.951 19.8009 138.677 19.5105 138.655 19.1206C138.626 18.9597 138.665 18.795 138.762 18.6598C138.859 18.5246 139.007 18.4291 139.177 18.3927C139.491 18.3623 139.764 18.67 139.796 19.06Z" fill="black"/>
<path opacity="0.15" d="M138.996 18.6231C139.131 18.4845 139.431 18.6231 139.459 18.9871C139.485 19.1036 139.475 19.2249 139.431 19.3363C139.385 19.4478 139.306 19.5446 139.204 19.6154C139.175 19.6255 139.143 19.6301 139.112 19.6285C139.08 19.627 139.049 19.6196 139.021 19.6067C138.992 19.5937 138.966 19.5755 138.946 19.5532C138.925 19.5309 138.91 19.5049 138.899 19.4767C138.991 19.5633 139.131 19.5504 139.223 19.403C139.283 19.3072 139.318 19.1989 139.322 19.0878C139.327 18.9767 139.302 18.8663 139.251 18.7661C139.195 18.6405 139.088 18.5885 138.996 18.6231Z" fill="black"/>
<path d="M144.791 18.5191C144.756 18.4227 144.75 18.3191 144.774 18.2199C144.798 18.1206 144.85 18.0295 144.926 17.9563C145.002 17.8832 145.097 17.8308 145.202 17.8051C145.307 17.7794 145.418 17.7812 145.522 17.8105C145.626 17.8397 145.719 17.8952 145.792 17.9709C145.864 18.0465 145.914 18.1394 145.934 18.2395C145.953 18.3395 145.944 18.4426 145.906 18.5378C145.867 18.633 145.802 18.7164 145.716 18.7791C145.637 18.8193 145.55 18.8445 145.461 18.8531C145.371 18.8618 145.282 18.8538 145.196 18.8296C145.11 18.8055 145.03 18.7656 144.96 18.7122C144.891 18.659 144.833 18.5933 144.791 18.5191Z" fill="#D0AD6B"/>
<path opacity="0.15" d="M144.791 18.5191C144.756 18.4227 144.75 18.3191 144.774 18.2199C144.798 18.1206 144.85 18.0295 144.926 17.9563C145.002 17.8832 145.097 17.8308 145.202 17.8051C145.307 17.7794 145.418 17.7812 145.522 17.8105C145.626 17.8397 145.719 17.8952 145.792 17.9709C145.864 18.0465 145.914 18.1394 145.934 18.2395C145.953 18.3395 145.944 18.4426 145.906 18.5378C145.867 18.633 145.802 18.7164 145.716 18.7791C145.637 18.8193 145.55 18.8445 145.461 18.8531C145.371 18.8618 145.282 18.8538 145.196 18.8296C145.11 18.8055 145.03 18.7656 144.96 18.7122C144.891 18.659 144.833 18.5933 144.791 18.5191Z" fill="black"/>
<path opacity="0.15" d="M145.707 18.4884C145.675 18.6704 145.341 18.7007 145.092 18.4234C145.003 18.3389 144.941 18.2327 144.915 18.1169C144.888 18.0011 144.896 17.8806 144.939 17.7691C144.959 17.7454 144.982 17.7256 145.009 17.7106C145.036 17.6956 145.067 17.6858 145.098 17.6817C145.129 17.6778 145.162 17.6796 145.192 17.6871C145.223 17.6947 145.252 17.7079 145.277 17.7257C145.148 17.7257 145.04 17.7821 145.045 17.9554C145.053 18.0669 145.088 18.1752 145.15 18.2709C145.21 18.3667 145.295 18.4472 145.397 18.5057C145.442 18.5385 145.498 18.5547 145.556 18.5515C145.612 18.5483 145.667 18.5259 145.707 18.4884Z" fill="black"/>
<path d="M137.604 16.3616C137.517 16.5099 137.371 16.6201 137.198 16.6688C137.025 16.7174 136.839 16.7005 136.678 16.6216C136.526 16.5661 136.395 16.4673 136.306 16.339C136.216 16.2108 136.171 16.0593 136.177 15.9059C136.183 15.7526 136.241 15.6049 136.342 15.4836C136.442 15.3624 136.58 15.2734 136.737 15.2293C136.893 15.1852 137.061 15.1881 137.217 15.2376C137.371 15.2872 137.507 15.3808 137.602 15.5055C137.698 15.6303 137.749 15.7799 137.749 15.9333C137.749 16.0868 137.699 16.2365 137.604 16.3616Z" fill="#D0AD6B"/>
<path opacity="0.15" d="M137.604 16.3616C137.517 16.5099 137.371 16.6201 137.198 16.6688C137.025 16.7174 136.839 16.7005 136.678 16.6216C136.526 16.5661 136.395 16.4673 136.306 16.339C136.216 16.2108 136.171 16.0593 136.177 15.9059C136.183 15.7526 136.241 15.6049 136.342 15.4836C136.442 15.3624 136.58 15.2734 136.737 15.2293C136.893 15.1852 137.061 15.1881 137.217 15.2376C137.371 15.2872 137.507 15.3808 137.602 15.5055C137.698 15.6303 137.749 15.7799 137.749 15.9333C137.749 16.0868 137.699 16.2365 137.604 16.3616Z" fill="black"/>
<path opacity="0.15" d="M137.285 15.5549C137.484 15.5245 137.618 15.8149 137.41 16.1225C137.243 16.3651 136.947 16.5081 136.79 16.4561C136.73 16.4356 136.683 16.3941 136.656 16.3407C136.629 16.2871 136.625 16.2259 136.646 16.1701C136.646 16.2915 136.776 16.3608 136.951 16.3044C137.065 16.265 137.166 16.2006 137.245 16.117C137.326 16.0332 137.384 15.9326 137.414 15.8235C137.428 15.6849 137.377 15.5809 137.285 15.5549Z" fill="black"/>
<path d="M143.288 20.6595C143.099 20.7939 142.872 20.8711 142.635 20.881C142.399 20.8909 142.164 20.8328 141.964 20.7146C141.764 20.5964 141.608 20.4237 141.515 20.2197C141.423 20.0156 141.399 19.79 141.447 19.573C141.496 19.356 141.613 19.158 141.785 19.0054C141.956 18.8529 142.174 18.7531 142.408 18.7195C142.641 18.686 142.881 18.7202 143.094 18.8176C143.306 18.915 143.482 19.0708 143.597 19.2643C143.751 19.4883 143.806 19.7604 143.748 20.0215C143.69 20.2827 143.524 20.5119 143.288 20.6595Z" fill="#D0AD6B"/>
<path opacity="0.15" d="M143.288 20.6595C143.099 20.7939 142.872 20.8711 142.635 20.881C142.399 20.8909 142.164 20.8328 141.964 20.7146C141.764 20.5964 141.608 20.4237 141.515 20.2197C141.423 20.0156 141.399 19.79 141.447 19.573C141.496 19.356 141.613 19.158 141.785 19.0054C141.956 18.8529 142.174 18.7531 142.408 18.7195C142.641 18.686 142.881 18.7202 143.094 18.8176C143.306 18.915 143.482 19.0708 143.597 19.2643C143.751 19.4883 143.806 19.7604 143.748 20.0215C143.69 20.2827 143.524 20.5119 143.288 20.6595Z" fill="black"/>
<path opacity="0.15" d="M142.635 18.9697C142.275 18.9697 141.946 19.3164 142.052 19.8363C142.16 20.3562 142.89 20.7289 143.246 20.3866C143.062 20.3741 142.885 20.3157 142.732 20.2175C142.581 20.1192 142.46 19.9846 142.381 19.8277C142.335 19.7563 142.305 19.6769 142.293 19.5943C142.281 19.5116 142.287 19.4276 142.31 19.3471C142.334 19.2668 142.376 19.1918 142.431 19.1269C142.487 19.062 142.556 19.0085 142.635 18.9697Z" fill="black"/>
<path d="M100.486 60.9463C100.391 60.9505 100.296 60.9272 100.216 60.8795C100.135 60.8316 100.073 60.7616 100.036 60.6791C99.9997 60.5966 99.9913 60.5055 100.012 60.4184C100.033 60.3312 100.082 60.2523 100.153 60.1923L100.657 59.7243C100.701 59.6837 100.753 59.6515 100.81 59.6295C100.867 59.6077 100.928 59.5965 100.989 59.5967C101.052 59.5969 101.112 59.6084 101.169 59.6307C101.225 59.653 101.278 59.6855 101.321 59.7265C101.365 59.7675 101.399 59.816 101.422 59.8695C101.445 59.9229 101.458 59.9801 101.457 60.0379C101.457 60.0956 101.444 60.1528 101.42 60.2059C101.397 60.2592 101.363 60.3076 101.318 60.3483L100.819 60.8162C100.776 60.8577 100.724 60.8905 100.667 60.9129C100.609 60.9352 100.548 60.9466 100.486 60.9463Z" fill="#E0E0E0"/>
<path d="M102.881 58.689C102.787 58.6934 102.693 58.67 102.612 58.6222C102.531 58.5744 102.468 58.5045 102.432 58.4218C102.396 58.3393 102.387 58.2483 102.408 58.1611C102.429 58.074 102.478 57.995 102.549 57.9351L103.502 57.0685C103.59 56.9858 103.71 56.9393 103.834 56.9393C103.959 56.9393 104.079 56.9858 104.167 57.0685C104.255 57.1513 104.306 57.2634 104.306 57.3805C104.306 57.4975 104.255 57.6097 104.167 57.6924L103.215 58.559C103.171 58.6004 103.12 58.6334 103.062 58.6557C103.005 58.678 102.944 58.6893 102.881 58.689ZM105.735 56.0199C105.64 56.0233 105.547 55.9993 105.467 55.9511C105.388 55.903 105.325 55.833 105.29 55.7507C105.253 55.6684 105.245 55.5777 105.266 55.491C105.288 55.4043 105.336 55.3258 105.407 55.2661L106.355 54.3995C106.443 54.3168 106.563 54.2703 106.688 54.2703C106.813 54.2703 106.933 54.3168 107.021 54.3995C107.109 54.4822 107.158 54.5945 107.158 54.7114C107.158 54.8285 107.109 54.9406 107.021 55.0234L106.068 55.916C106.024 55.9551 105.971 55.9856 105.914 56.0056C105.857 56.0257 105.797 56.035 105.735 56.033V56.0199ZM108.594 53.3553C108.498 53.3597 108.404 53.3363 108.323 53.2885C108.243 53.2407 108.179 53.1707 108.143 53.0882C108.107 53.0057 108.099 52.9146 108.12 52.8275C108.14 52.7403 108.19 52.6614 108.26 52.6014L109.213 51.7348C109.256 51.6941 109.309 51.6619 109.365 51.64C109.423 51.6181 109.484 51.607 109.545 51.6071C109.607 51.6073 109.668 51.6189 109.725 51.6412C109.781 51.6635 109.833 51.696 109.876 51.737C109.92 51.778 109.954 51.8265 109.977 51.88C110.001 51.9334 110.013 51.9906 110.013 52.0483C110.013 52.1061 110.001 52.1632 109.976 52.2164C109.953 52.2697 109.918 52.318 109.874 52.3587L108.926 53.2253C108.885 53.2691 108.833 53.3044 108.775 53.329C108.718 53.3536 108.656 53.367 108.594 53.3683V53.3553ZM111.447 50.6863C111.351 50.6906 111.257 50.6673 111.176 50.6195C111.096 50.5717 111.033 50.5017 110.997 50.4192C110.96 50.3367 110.952 50.2456 110.973 50.1584C110.994 50.0712 111.043 49.9923 111.114 49.9324L112.066 49.0658C112.155 48.983 112.275 48.9368 112.401 48.9372C112.526 48.9376 112.646 48.9846 112.735 49.0679C112.823 49.1513 112.872 49.264 112.872 49.3814C112.871 49.4989 112.821 49.6113 112.732 49.694L111.779 50.5823C111.735 50.6214 111.683 50.6519 111.626 50.672C111.568 50.692 111.508 50.7013 111.447 50.6992V50.6863ZM114.3 48.0216C114.206 48.025 114.112 48.001 114.032 47.9528C113.952 47.9046 113.891 47.8347 113.854 47.7523C113.819 47.67 113.811 47.5793 113.832 47.4926C113.852 47.406 113.902 47.3274 113.971 47.2677L114.897 46.4011C114.986 46.3184 115.105 46.2719 115.23 46.2719C115.354 46.2719 115.474 46.3184 115.562 46.4011C115.651 46.4838 115.701 46.5961 115.701 46.713C115.701 46.8301 115.651 46.9423 115.562 47.0251L114.61 47.9133C114.527 47.9886 114.416 48.032 114.3 48.0346V48.0216ZM117.158 45.3569C117.063 45.3613 116.968 45.3379 116.889 45.2901C116.808 45.2423 116.745 45.1723 116.709 45.0898C116.672 45.0073 116.663 44.9162 116.685 44.8291C116.706 44.7419 116.754 44.663 116.825 44.603L117.778 43.7104C117.867 43.6277 117.988 43.5814 118.113 43.5819C118.238 43.5823 118.358 43.6293 118.446 43.7126C118.535 43.796 118.584 43.9087 118.584 44.0261C118.584 44.1435 118.533 44.256 118.444 44.3387L117.492 45.2573C117.446 45.2956 117.394 45.3253 117.337 45.3446C117.279 45.3639 117.219 45.3726 117.158 45.3699V45.3569ZM120.012 42.6879C119.917 42.6922 119.822 42.669 119.742 42.6211C119.661 42.5733 119.599 42.5033 119.562 42.4208C119.525 42.3383 119.517 42.2472 119.538 42.16C119.559 42.0729 119.608 41.9939 119.678 41.934L120.631 41.0458C120.72 40.963 120.839 40.9165 120.964 40.9165C121.09 40.9165 121.209 40.963 121.298 41.0458C121.386 41.1285 121.435 41.2407 121.435 41.3577C121.435 41.4748 121.386 41.5869 121.298 41.6697L120.345 42.5579C120.303 42.6018 120.251 42.6371 120.194 42.6616C120.137 42.6862 120.074 42.6995 120.012 42.7009V42.6879ZM122.869 40.0579C122.774 40.0623 122.68 40.0389 122.6 39.9911C122.519 39.9433 122.456 39.8733 122.42 39.7907C122.384 39.7082 122.375 39.6172 122.396 39.53C122.417 39.4429 122.466 39.3639 122.537 39.3039L123.485 38.4374C123.573 38.3547 123.693 38.3082 123.818 38.3082C123.943 38.3082 124.062 38.3547 124.151 38.4374C124.239 38.5201 124.289 38.6323 124.289 38.7494C124.289 38.8664 124.239 38.9786 124.151 39.0613L123.199 39.9495C123.108 40.0243 122.991 40.0632 122.869 40.0579ZM125.723 37.3888C125.628 37.3932 125.534 37.3699 125.453 37.322C125.372 37.2742 125.31 37.2043 125.273 37.1218C125.237 37.0393 125.229 36.9481 125.249 36.861C125.27 36.7739 125.32 36.6949 125.391 36.635L126.343 35.7684C126.387 35.7265 126.438 35.6931 126.495 35.6703C126.552 35.6476 126.614 35.6357 126.676 35.6357C126.738 35.6357 126.8 35.6476 126.857 35.6703C126.914 35.6931 126.965 35.7265 127.009 35.7684C127.054 35.8088 127.09 35.8573 127.114 35.9108C127.138 35.9645 127.15 36.0221 127.15 36.0803C127.15 36.1386 127.138 36.1963 127.114 36.2498C127.09 36.3034 127.054 36.3519 127.009 36.3923L126.056 37.2589C125.965 37.3347 125.845 37.3737 125.723 37.3672V37.3888Z" fill="#E0E0E0"/>
<path d="M128.577 34.7027C128.481 34.707 128.387 34.6836 128.306 34.6358C128.227 34.5881 128.163 34.518 128.127 34.4355C128.09 34.353 128.082 34.2619 128.103 34.1748C128.124 34.0876 128.173 34.0087 128.244 33.9487L128.744 33.4807C128.832 33.398 128.952 33.3516 129.076 33.3516C129.201 33.3516 129.321 33.398 129.409 33.4807C129.497 33.5635 129.547 33.6757 129.547 33.7927C129.547 33.9097 129.497 34.0219 129.409 34.1047L128.909 34.5726C128.866 34.6141 128.814 34.647 128.757 34.6693C128.7 34.6917 128.639 34.7029 128.577 34.7027Z" fill="#E0E0E0"/>
<path d="M142.215 37.2973C141.318 37.2969 140.421 37.2362 139.533 37.1153C134.794 36.4668 130.507 34.1213 127.577 30.5722C124.645 27.0232 123.298 22.5474 123.817 18.0865C124.336 13.6255 126.683 9.52727 130.362 6.65386C134.04 3.78046 138.766 2.35597 143.542 2.68006C148.32 3.00416 152.777 5.05159 155.976 8.3916C159.175 11.7316 160.866 16.1038 160.694 20.5883C160.522 25.0728 158.5 29.32 155.053 32.4364C151.607 35.5527 147.005 37.2952 142.215 37.2973ZM142.155 3.79166C138.303 3.80092 134.567 5.02776 131.551 7.27366C128.535 9.51951 126.417 12.653 125.538 16.1671C124.66 19.6812 125.073 23.3702 126.71 26.6371C128.347 29.904 131.114 32.5577 134.562 34.1687C138.008 35.7797 141.935 36.2538 145.706 35.5143C149.476 34.7747 152.87 32.8647 155.338 30.0935C157.806 27.3223 159.204 23.8519 159.305 20.2439C159.406 16.636 158.205 13.1017 155.895 10.2129C154.3 8.21104 152.226 6.58739 149.84 5.47224C147.453 4.3571 144.822 3.78151 142.155 3.79166Z" fill="#455A64"/>
<path d="M130.076 7.67285L128.991 8.62282L153.321 32.9972L154.404 32.0473L130.076 7.67285Z" fill="#455A64"/>
</svg>
